<svg width="520" height="155" xmlns="http://www.w3.org/2000/svg" xmlns:xlink="http://www.w3.org/1999/xlink">
  <defs>
    <path id="a" d="M0 154.375h520V.65H0z"/>
  </defs>
  <g fill="none" fill-rule="evenodd">
    <path fill="#FAD2CF" d="M251.144 70.536h28.288V.73h-28.288z"/>
    <path fill="#AECBFA" d="M473.915 70.536h28.289V.73h-28.289z"/>
    <path fill="#A8DAB5" d="M0 70.536h28.289V.73H0z"/>
    <g transform="translate(0 .058)">
      <path d="M105.301 70.478V.673c-13.793 0-24.963 11.17-24.963 24.96v19.88c0 13.795 11.17 24.965 24.963 24.965" fill="#FBBC04"/>
      <mask id="b" fill="#fff">
        <use xlink:href="#a"/>
      </mask>
      <path fill="#FDE293" mask="url(#b)" d="M105.3 70.476h31.63V.672H105.3z"/>
      <path fill="#AECBFA" mask="url(#b)" d="M154.068.672l40.32 69.805V.672z"/>
      <path fill="#4285F4" mask="url(#b)" d="M234.686.672h-40.3v69.805z"/>
      <path d="M28.307.672c19.28 0 34.916 15.632 34.916 34.913 0 19.278-15.636 34.913-34.916 34.913V.672z" fill="#34A853" mask="url(#b)"/>
      <path d="M28.307 57.145c11.91 0 21.582-9.669 21.582-21.58 0-11.911-9.671-21.583-21.582-21.583H14.153V30.5" stroke="#0D652D" mask="url(#b)"/>
      <path d="M421.085 53.022c-14.454 0-26.184-11.711-26.184-26.187C394.9 12.36 406.609.65 421.085.65v52.37z" fill="#FBBC04" mask="url(#b)"/>
      <path fill="#EA4335" mask="url(#b)" d="M279.449 18.127h23.283V.672H279.45z"/>
      <path fill="#4285F4" mask="url(#b)" d="M456.119 18.127h17.796V.672h-17.796zM502.204 18.127H520V.672h-17.796z"/>
      <path fill="#EA4335" mask="url(#b)" d="M279.449 53.021h17.457V35.566H279.45z"/>
      <path fill="#FBBC04" mask="url(#b)" d="M421.086 18.127h23.262V.672h-23.262z"/>
      <path d="M421.085 18.128v34.913H397.8V70.5h23.262c14.455 0 26.187-11.71 26.187-26.187 0-14.473-11.71-26.184-26.165-26.184" fill="#FDE293" mask="url(#b)"/>
      <path d="M408.874 39.33a17.376 17.376 0 01-5.246-12.473c0-9.63 7.808-17.458 17.457-17.458h13.093" stroke="#E37400" mask="url(#b)"/>
      <path d="M465.027 9.559h46.085" stroke="#174EA6" mask="url(#b)"/>
      <path d="M344.331 70.478V.673c-13.793 0-24.965 11.17-24.965 24.96v19.88c0 13.795 11.172 24.965 24.965 24.965" fill="#34A853" mask="url(#b)"/>
      <path fill="#A8DAB5" mask="url(#b)" d="M344.332 70.476h31.63V.672h-31.63z"/>
      <path d="M336.545 25.034l-4.507-.041M375.961 25.073h-30.989M375.961 46.073h-9.249M358.264 46.073h-7.028" stroke="#0D652D" mask="url(#b)"/>
      <path d="M194.386 37.406a4.446 4.446 0 014.447 4.445 4.445 4.445 0 11-4.447-4.444zM209.901 10.54a4.446 4.446 0 014.447 4.444 4.446 4.446 0 01-8.891 0 4.444 4.444 0 014.444-4.444zM207.68 18.808l-11.113 19.259M178.853 10.54a4.444 4.444 0 110 8.889 4.446 4.446 0 01-4.447-4.445 4.446 4.446 0 014.447-4.444zM181.075 18.808l11.112 19.259" stroke="#174EA6" mask="url(#b)"/>
      <path stroke="#0D652D" mask="url(#b)" d="M14.145 30.506l5.067 5.067-5.067 5.067-5.067-5.067zM362.483 41.847l4.22 4.22-4.22 4.216-4.22-4.216zM340.84 20.852l4.22 4.22-4.22 4.216-4.22-4.216z"/>
      <path d="M488.069 20.109a4.225 4.225 0 110 8.445 4.225 4.225 0 010-8.445zM488.069 36.285a4.225 4.225 0 110 8.445 4.225 4.225 0 010-8.445zM488.069 52.46a4.225 4.225 0 110 8.445 4.225 4.225 0 010-8.444z" stroke="#174EA6" mask="url(#b)"/>
      <path d="M412.817 61.75h8.247c9.65 0 17.458-7.809 17.458-17.456 0-9.652-7.808-17.46-17.458-17.46" stroke="#E37400" mask="url(#b)"/>
      <path stroke="#A50E0E" mask="url(#b)" d="M283.272 44.233h-17.978V62.21"/>
      <path stroke="#A50E0E" stroke-width=".498" mask="url(#b)" d="M291.04 9.379h-25.745v25.745"/>
      <path d="M136.95 25.073h-31.768M136.95 35.566h-31.768M136.95 46.073h-31.768" stroke="#E37400" mask="url(#b)"/>
      <path d="M351.258 101.327c9.65 0 17.455 7.808 17.455 17.455v17.461c0 9.625-7.805 17.455-17.455 17.455h-13.092M232.663 101.327c9.63 0 17.458 7.808 17.458 17.455v17.461c0 9.625-7.808 17.455-17.458 17.455-9.65 0-17.455-7.808-17.455-17.455v-17.46c0-9.648 7.805-17.456 17.455-17.456zM292.42 101.489v52.19M179.573 153.677h-25.965v-8.73" stroke="#FFFFFF" mask="url(#b)"/>
      <path d="M153.608 144.949c0-6.747 5.465-12.212 12.212-12.212 8.667 0 15.716-7.028 15.716-15.716 0-8.689-7.028-15.711-15.716-15.711h-12.212M351.258 101.327c-9.63 0-17.455 7.808-17.455 17.455 0 9.631 7.805 17.461 17.455 17.461 9.65 0 17.455-7.808 17.455-17.46" stroke="#FFFFFF" mask="url(#b)"/>
    </g>
  </g>
</svg>
