<svg width="1097.682" height="105.7" viewBox="0 0 1097.682 105.7" xmlns="http://www.w3.org/2000/svg"><g id="svgGroup" stroke-linecap="round" fill-rule="evenodd" font-size="9pt" stroke="#000" stroke-width="0.25mm" fill="black" style="stroke:#fff;stroke-width:0.25mm;fill:#94caca"><path d="M 41.702 105.7 Q 38.102 105.7 34.552 104.85 A 15.931 15.931 0 0 1 31.522 103.811 A 11.988 11.988 0 0 1 28.702 102 A 6.572 6.572 0 0 1 26.448 97.529 A 9.241 9.241 0 0 1 26.402 96.6 A 8.979 8.979 0 0 1 26.428 95.907 A 7.738 7.738 0 0 1 26.452 95.65 A 6.672 6.672 0 0 1 26.554 95.01 A 5.804 5.804 0 0 1 26.602 94.8 Q 27.736 88.939 32.981 83.659 A 34.294 34.294 0 0 1 33.602 83.05 Q 39.402 77.5 48.002 73 Q 53.702 70 60.752 67.1 Q 67.802 64.2 75.652 61.8 Q 83.502 59.4 91.452 57.8 Q 99.402 56.2 106.802 55.8 Q 108.102 54 109.202 52.2 A 245.885 245.885 0 0 0 111.051 49.127 A 222.087 222.087 0 0 0 111.302 48.7 Q 115.102 42.1 117.902 35.35 A 44.289 44.289 0 0 0 119.581 30.602 Q 120.702 26.691 120.702 23.4 A 10.909 10.909 0 0 0 120.397 20.754 A 8.087 8.087 0 0 0 118.852 17.6 A 12.381 12.381 0 0 0 115.281 14.598 A 15.172 15.172 0 0 0 114.002 13.95 A 27.786 27.786 0 0 0 108.797 12.218 A 31.611 31.611 0 0 0 107.502 11.95 Q 104.002 11.3 100.502 11.1 A 136.507 136.507 0 0 0 97.593 10.963 Q 96.264 10.916 95.077 10.904 A 77.545 77.545 0 0 0 94.302 10.9 A 121.182 121.182 0 0 0 84.184 11.343 A 154.196 154.196 0 0 0 75.702 12.3 Q 65.702 13.7 55.552 16.2 Q 45.402 18.7 36.152 22.2 A 127.068 127.068 0 0 0 26.363 26.359 A 99.789 99.789 0 0 0 19.602 29.9 A 58.819 58.819 0 0 0 14.182 33.403 Q 11.521 35.353 9.461 37.409 A 31.794 31.794 0 0 0 8.102 38.85 A 19.319 19.319 0 0 0 5.584 42.386 Q 3.955 45.376 3.904 48.498 A 12.363 12.363 0 0 0 3.902 48.7 A 9.59 9.59 0 0 0 4.262 51.39 A 7.415 7.415 0 0 0 6.102 54.55 Q 8.302 56.8 11.752 57.85 Q 15.202 58.9 18.702 58.9 A 26.498 26.498 0 0 0 21.74 58.731 A 23.282 23.282 0 0 0 22.702 58.6 A 1.965 1.965 0 0 1 23.18 58.506 A 2.326 2.326 0 0 1 23.352 58.5 L 24.002 58.5 A 10.681 10.681 0 0 1 24.567 58.514 Q 24.839 58.529 25.075 58.558 A 5.043 5.043 0 0 1 25.352 58.6 A 2.419 2.419 0 0 1 25.537 58.641 Q 25.815 58.714 25.881 58.826 A 0.143 0.143 0 0 1 25.902 58.9 A 0.216 0.216 0 0 1 25.823 59.049 Q 25.587 59.277 24.653 59.556 A 13.571 13.571 0 0 1 24.502 59.6 Q 21.102 60.5 17.402 60.5 A 25.708 25.708 0 0 1 11.384 59.815 A 22.75 22.75 0 0 1 8.852 59.05 Q 4.902 57.6 2.452 54.8 Q 0.002 52 0.002 48.1 Q 0.002 42.3 3.402 37.35 A 31.247 31.247 0 0 1 8.321 31.807 A 40.875 40.875 0 0 1 12.702 28.4 Q 18.602 24.4 26.302 21.2 Q 34.002 18 42.752 15.65 Q 51.502 13.3 60.452 11.75 A 216.232 216.232 0 0 1 75.164 9.704 A 193.493 193.493 0 0 1 77.802 9.45 Q 86.202 8.7 93.202 8.7 Q 99.202 8.7 104.702 9.5 Q 110.202 10.3 114.452 12.2 A 20.117 20.117 0 0 1 118.041 14.245 A 15.532 15.532 0 0 1 121.152 17.2 A 11.295 11.295 0 0 1 123.476 22.833 A 14.947 14.947 0 0 1 123.602 24.8 Q 123.602 27.365 122.937 30.656 A 49.347 49.347 0 0 1 122.502 32.6 A 66.491 66.491 0 0 1 120.455 39.344 A 77.301 77.301 0 0 1 119.502 41.85 A 67.422 67.422 0 0 1 116.085 49.14 A 60.519 60.519 0 0 1 115.202 50.7 Q 114.502 52 113.702 53.25 Q 112.902 54.5 112.102 55.7 Q 113.202 55.7 114.352 55.75 Q 115.502 55.8 116.602 55.9 Q 120.602 56.3 124.152 57.25 Q 127.702 58.2 128.502 60 Q 128.585 60.083 128.599 60.234 A 0.703 0.703 0 0 1 128.602 60.3 A 0.489 0.489 0 0 1 128.379 60.723 Q 128.296 60.781 128.182 60.823 A 1.291 1.291 0 0 1 128.102 60.85 Q 127.652 60.985 127.445 60.674 A 0.693 0.693 0 0 1 127.402 60.6 Q 126.831 59.458 124.562 58.781 A 14.818 14.818 0 0 0 123.452 58.5 A 49.587 49.587 0 0 0 119.175 57.781 A 60.896 60.896 0 0 0 116.402 57.5 A 34.726 34.726 0 0 0 114.072 57.402 A 38.644 38.644 0 0 0 113.702 57.4 L 110.902 57.4 A 135.482 135.482 0 0 1 102.765 67.994 A 154.781 154.781 0 0 1 99.702 71.5 Q 93.402 78.5 86.252 84.65 Q 79.102 90.8 71.502 95.55 A 83.275 83.275 0 0 1 61.549 100.902 A 70.633 70.633 0 0 1 56.352 103 A 46.898 46.898 0 0 1 47.545 105.254 A 39.192 39.192 0 0 1 41.702 105.7 Z M 40.302 104 A 36.147 36.147 0 0 0 49.311 102.816 A 45.267 45.267 0 0 0 54.202 101.25 A 70.622 70.622 0 0 0 64.102 96.523 A 84.039 84.039 0 0 0 68.602 93.75 Q 75.802 89 82.552 83 Q 89.302 77 95.152 70.45 A 176.128 176.128 0 0 0 101.859 62.498 A 143.395 143.395 0 0 0 105.502 57.7 Q 95.202 58.5 84.302 61.5 Q 73.402 64.5 63.152 69.05 A 155.761 155.761 0 0 0 49.27 76.03 A 134.363 134.363 0 0 0 44.302 79 A 72.238 72.238 0 0 0 39.684 82.023 Q 35.264 85.184 32.837 88.169 A 20.183 20.183 0 0 0 32.652 88.4 A 24.237 24.237 0 0 0 30.936 90.852 Q 29.2 93.722 29.107 96.13 A 7.02 7.02 0 0 0 29.102 96.4 A 6.2 6.2 0 0 0 31.273 101.212 A 8.789 8.789 0 0 0 32.152 101.9 A 11.003 11.003 0 0 0 35.525 103.425 Q 36.974 103.82 38.688 103.944 A 22.45 22.45 0 0 0 40.302 104 Z" id="0" vector-effect="non-scaling-stroke"/><path d="M 168.602 37 L 168.602 37.3 A 2.296 2.296 0 0 1 168.549 37.809 A 1.609 1.609 0 0 1 168.252 38.45 Q 167.902 38.9 167.602 38.9 A 0.618 0.618 0 0 1 167.594 38.9 Q 167.12 38.894 167.103 38.156 A 2.425 2.425 0 0 1 167.102 38.1 A 4.762 4.762 0 0 0 167.09 37.783 Q 167.06 37.333 166.952 36.65 A 3.254 3.254 0 0 0 166.497 35.446 A 4.335 4.335 0 0 0 166.052 34.85 Q 165.501 34.226 164.384 34.06 A 6.026 6.026 0 0 0 163.502 34 A 10.862 10.862 0 0 0 161.224 34.259 Q 160.151 34.489 158.975 34.925 A 22.096 22.096 0 0 0 157.802 35.4 Q 154.602 36.8 151.302 39.15 Q 148.002 41.5 145.102 44.25 Q 142.202 47 140.302 49.7 A 18.45 18.45 0 0 0 139.271 51.329 Q 138.797 52.179 138.507 52.961 A 7.461 7.461 0 0 0 138.102 54.5 A 1.89 1.89 0 0 0 138.002 55.091 A 1.801 1.801 0 0 0 138.002 55.1 L 138.002 55.6 A 6.785 6.785 0 0 0 138.052 56.455 Q 138.17 57.383 138.569 57.899 A 1.682 1.682 0 0 0 138.752 58.1 A 2.562 2.562 0 0 0 140.113 58.754 A 3.584 3.584 0 0 0 140.702 58.8 A 7.215 7.215 0 0 0 142.255 58.619 Q 143.457 58.353 144.852 57.7 A 29.218 29.218 0 0 0 148.887 55.417 A 26.848 26.848 0 0 0 149.202 55.2 Q 151.044 53.911 151.868 53.215 A 9.95 9.95 0 0 0 152.002 53.1 Q 155.202 50.4 159.202 47.15 Q 163.202 43.9 166.302 41.1 Q 166.802 40.8 167.402 40.8 A 4.592 4.592 0 0 1 168.42 40.907 A 3.219 3.219 0 0 1 169.702 41.5 A 1.004 1.004 0 0 1 169.981 42.049 A 1.432 1.432 0 0 1 170.002 42.3 A 2.584 2.584 0 0 1 169.973 42.673 Q 169.916 43.058 169.752 43.55 Q 169.51 44.276 169.127 45.143 A 25.163 25.163 0 0 1 169.102 45.2 A 110.92 110.92 0 0 0 167.729 48.129 Q 166.921 49.925 166.302 51.5 A 21.369 21.369 0 0 0 165.722 53.162 Q 165.202 54.894 165.202 56.2 A 3.89 3.89 0 0 0 165.383 57.439 Q 165.974 59.2 168.502 59.2 A 10.25 10.25 0 0 0 170.098 59.058 Q 172.38 58.694 175.902 57.4 A 50.86 50.86 0 0 0 183.19 53.941 A 60.703 60.703 0 0 0 186.502 51.9 A 113.248 113.248 0 0 0 192.736 47.486 A 93.921 93.921 0 0 0 196.102 44.8 A 32.495 32.495 0 0 1 197.026 44.07 Q 197.453 43.746 197.845 43.475 A 17.995 17.995 0 0 1 198.102 43.3 A 10.136 10.136 0 0 0 198.909 42.698 Q 199.44 42.263 200.002 41.7 A 0.881 0.881 0 0 1 200.212 41.628 Q 200.31 41.607 200.424 41.602 A 1.684 1.684 0 0 1 200.502 41.6 A 0.432 0.432 0 0 1 200.621 41.615 Q 200.754 41.653 200.789 41.789 A 0.442 0.442 0 0 1 200.802 41.9 A 0.628 0.628 0 0 1 200.767 42.096 Q 200.706 42.279 200.541 42.515 A 3.625 3.625 0 0 1 200.402 42.7 Q 199.802 43.5 197.502 45.65 A 62.599 62.599 0 0 1 195.622 47.333 Q 194.563 48.246 193.335 49.235 A 119.603 119.603 0 0 1 191.802 50.45 Q 188.402 53.1 184.452 55.55 A 42.07 42.07 0 0 1 178.748 58.529 A 36.794 36.794 0 0 1 176.502 59.4 Q 175.102 59.867 173.309 60.29 A 52.312 52.312 0 0 1 173.052 60.35 Q 171.102 60.8 169.202 60.8 A 10.133 10.133 0 0 1 166.267 60.389 A 8.641 8.641 0 0 1 163.952 59.3 Q 162.177 58.116 161.802 55.314 A 12.21 12.21 0 0 1 161.702 53.7 A 18.063 18.063 0 0 1 162.13 50.604 A 21.385 21.385 0 0 1 162.452 49.35 Q 163.102 47.1 163.902 45.1 Q 162.907 46.248 161.149 47.983 A 122.552 122.552 0 0 1 160.002 49.1 Q 157.402 51.6 154.152 54.15 A 45.301 45.301 0 0 1 148.561 57.919 A 40.935 40.935 0 0 1 147.502 58.5 Q 144.481 60.1 141.775 60.278 A 10.244 10.244 0 0 1 141.102 60.3 A 6.644 6.644 0 0 1 138.534 59.818 A 6.202 6.202 0 0 1 136.202 58.1 A 4.692 4.692 0 0 1 135.089 55.975 Q 134.902 55.209 134.902 54.3 A 9.944 9.944 0 0 1 135.309 51.565 Q 135.64 50.407 136.241 49.175 A 19.312 19.312 0 0 1 136.752 48.2 A 28.934 28.934 0 0 1 139.533 44.134 A 36.297 36.297 0 0 1 141.652 41.75 Q 144.702 38.6 148.252 36.1 Q 151.802 33.6 155.202 32.5 A 48.106 48.106 0 0 1 157.688 31.775 Q 160.11 31.144 161.846 31.027 A 11.25 11.25 0 0 1 162.602 31 A 8.568 8.568 0 0 1 164.187 31.137 Q 165.903 31.46 166.852 32.55 A 6.234 6.234 0 0 1 167.852 34.165 Q 168.18 34.917 168.391 35.837 A 13.362 13.362 0 0 1 168.602 37 Z" id="1" vector-effect="non-scaling-stroke"/><path d="M 191.902 60.5 L 191.502 60.5 Q 190.502 60.5 190.502 59.3 A 4.865 4.865 0 0 1 190.715 57.901 A 6.069 6.069 0 0 1 190.952 57.25 Q 191.388 56.232 191.496 55.919 A 2.366 2.366 0 0 0 191.502 55.9 Q 192.302 54.2 194.052 51.4 Q 195.802 48.6 198.002 45.45 Q 200.202 42.3 202.602 39.45 Q 205.002 36.6 207.102 34.8 Q 209.202 33 210.702 33 A 0.944 0.944 0 0 1 210.918 33.031 Q 211.272 33.117 211.937 33.441 A 17.512 17.512 0 0 1 212.352 33.65 Q 213.309 34.148 213.885 34.499 A 9.319 9.319 0 0 1 214.202 34.7 A 1.238 1.238 0 0 1 214.466 34.907 A 0.832 0.832 0 0 1 214.702 35.5 A 1.33 1.33 0 0 1 214.671 35.802 Q 214.575 36.214 214.18 36.285 A 1.002 1.002 0 0 1 214.002 36.3 L 213.502 36.3 Q 213.202 36.3 212.902 36.35 A 1.423 1.423 0 0 0 212.722 36.394 Q 212.532 36.452 212.268 36.573 A 8.175 8.175 0 0 0 212.002 36.7 Q 210.502 37.4 208.302 39.25 Q 206.102 41.1 203.702 43.65 Q 201.302 46.2 199.152 48.8 A 106.403 106.403 0 0 0 197.395 50.979 Q 196.346 52.319 195.502 53.5 A 61.063 61.063 0 0 0 194.815 54.481 Q 194.185 55.401 193.809 56.041 A 9.611 9.611 0 0 0 193.502 56.6 A 11.616 11.616 0 0 1 194.182 55.662 Q 194.935 54.714 196.107 53.54 A 43.229 43.229 0 0 1 196.502 53.15 Q 198.602 51.1 201.352 48.9 Q 204.102 46.7 207.052 44.85 A 41.919 41.919 0 0 1 210.116 43.096 A 32.088 32.088 0 0 1 212.702 41.9 A 14.468 14.468 0 0 1 214.34 41.296 Q 215.192 41.042 215.963 40.951 A 7.153 7.153 0 0 1 216.802 40.9 A 5.651 5.651 0 0 1 218.108 41.041 Q 219.042 41.263 219.681 41.833 A 3.357 3.357 0 0 1 220.252 42.5 A 8.366 8.366 0 0 1 221.17 44.412 Q 221.468 45.29 221.631 46.313 A 13.897 13.897 0 0 1 221.652 46.45 Q 222.002 48.8 222.202 51.2 A 22.531 22.531 0 0 0 222.452 52.956 Q 222.785 54.746 223.364 55.827 A 4.401 4.401 0 0 0 223.802 56.5 Q 224.997 57.994 226.886 58 A 4.772 4.772 0 0 0 226.902 58 A 7.333 7.333 0 0 0 228.198 57.877 Q 229.086 57.717 230.102 57.35 Q 231.902 56.7 234.002 55.7 A 60.856 60.856 0 0 0 239.078 52.836 A 76.179 76.179 0 0 0 242.652 50.45 Q 247.102 47.3 251.202 43.9 L 257.502 38.7 Q 258.282 38.115 258.492 38.1 A 0.149 0.149 0 0 1 258.502 38.1 A 0.181 0.181 0 0 1 258.612 38.13 Q 258.896 38.339 257.778 40.017 A 26.442 26.442 0 0 1 257.552 40.35 A 16.09 16.09 0 0 1 256.325 41.897 Q 254.854 43.552 252.502 45.5 Q 249.802 47.7 246.452 50.3 Q 243.102 52.9 239.452 55.2 Q 235.802 57.5 232.152 59 Q 228.506 60.498 225.309 60.5 A 9.738 9.738 0 0 1 225.302 60.5 A 8.645 8.645 0 0 1 223.618 60.347 Q 222.657 60.156 221.92 59.726 A 4.28 4.28 0 0 1 220.852 58.85 Q 219.402 57.2 218.802 54.75 Q 218.202 52.3 217.802 49.8 Q 217.478 47.777 216.86 46.31 A 9.513 9.513 0 0 0 216.552 45.65 A 3.018 3.018 0 0 0 215.635 44.555 Q 214.862 44 213.702 44 Q 212.402 44 210.702 44.7 A 13.571 13.571 0 0 0 209.451 45.299 Q 208.177 45.984 206.602 47.1 A 65.111 65.111 0 0 0 202.856 49.87 A 53.333 53.333 0 0 0 200.852 51.55 A 110.435 110.435 0 0 0 197.84 54.304 A 90.03 90.03 0 0 0 196.202 55.9 Q 195.519 56.583 194.55 57.647 A 93.766 93.766 0 0 0 194.502 57.7 Q 193.502 58.8 192.752 59.65 A 28.548 28.548 0 0 1 192.575 59.849 Q 191.99 60.5 191.902 60.5 Z" id="2" vector-effect="non-scaling-stroke"/><path d="M 350.202 57.2 L 348.902 56.2 Q 344.402 61.3 340.502 65.35 Q 337.422 68.549 335.464 70.282 A 28.879 28.879 0 0 1 334.502 71.1 A 7.779 7.779 0 0 1 333.84 71.561 Q 333.139 71.992 332.575 72.078 A 1.803 1.803 0 0 1 332.302 72.1 A 0.917 0.917 0 0 1 332.12 72.084 Q 331.838 72.026 331.806 71.769 A 0.56 0.56 0 0 1 331.802 71.7 A 1.056 1.056 0 0 1 331.901 71.286 Q 332.148 70.716 333.01 69.882 A 13.124 13.124 0 0 1 333.202 69.7 A 13.618 13.618 0 0 0 333.482 69.41 Q 334.205 68.641 335.952 66.65 A 863.06 863.06 0 0 0 337.67 64.686 Q 338.43 63.815 339.263 62.856 A 1571.37 1571.37 0 0 0 341.002 60.85 A 682.5 682.5 0 0 0 346.433 54.5 A 626.713 626.713 0 0 0 346.602 54.3 Q 344.002 52 341.452 49.7 Q 338.902 47.4 336.402 44.9 A 1.045 1.045 0 0 1 336.184 44.591 A 0.94 0.94 0 0 1 336.102 44.2 A 1.44 1.44 0 0 1 336.167 43.748 Q 336.381 43.1 337.302 43.1 A 1.426 1.426 0 0 1 337.826 43.207 Q 338.034 43.289 338.253 43.434 A 3.584 3.584 0 0 1 338.602 43.7 Q 343.302 48.3 348.202 52.4 Q 349.602 50.7 350.802 49.3 Q 352.002 47.9 352.702 47 Q 354.008 45.488 355.669 43.526 A 781.206 781.206 0 0 0 357.252 41.65 A 103.559 103.559 0 0 0 361.199 36.644 A 117.624 117.624 0 0 0 362.502 34.85 A 47.155 47.155 0 0 0 365.775 29.577 A 40.964 40.964 0 0 0 366.802 27.5 Q 368.472 23.865 368.502 20.616 A 12.855 12.855 0 0 0 368.502 20.5 Q 368.502 19.7 368.352 18.95 Q 368.202 18.2 368.002 17.5 A 10.806 10.806 0 0 0 362.998 11.77 A 16.703 16.703 0 0 0 359.802 10.4 Q 353.896 8.525 346.232 8.408 A 67.352 67.352 0 0 0 345.202 8.4 Q 339.202 8.4 332.702 9.2 Q 326.202 10 319.852 11.2 A 209.492 209.492 0 0 0 312.247 12.778 A 172.247 172.247 0 0 0 308.002 13.8 Q 302.502 15.2 298.502 16.4 Q 295.343 17.348 293.556 18.046 A 20.392 20.392 0 0 0 292.702 18.4 Q 283.002 22.4 276.752 27.15 Q 272.699 30.23 270.98 33.584 A 11.289 11.289 0 0 0 269.802 37.3 A 5.291 5.291 0 0 0 269.748 38.049 Q 269.748 39.668 270.809 40.997 A 5.777 5.777 0 0 0 270.852 41.05 Q 272.202 42.7 274.452 43.8 Q 276.702 44.9 279.252 45.45 A 25.521 25.521 0 0 0 281.863 45.879 A 19.744 19.744 0 0 0 284.002 46 A 4.156 4.156 0 0 1 284.152 46.004 Q 284.555 46.019 285.652 46.1 Q 287.002 46.2 288.302 46.1 L 288.502 46.1 A 3.288 3.288 0 0 1 289.057 46.145 Q 289.38 46.2 289.647 46.324 A 2.017 2.017 0 0 1 289.702 46.35 A 1.344 1.344 0 0 1 289.927 46.489 Q 290.202 46.703 290.202 47 Q 290.202 47.3 289.302 47.8 A 7.089 7.089 0 0 1 288.35 48.1 Q 287.673 48.265 286.852 48.35 Q 285.402 48.5 284.002 48.5 A 17.279 17.279 0 0 1 280.058 48.027 A 21.007 21.007 0 0 1 278.202 47.5 Q 275.202 46.5 272.602 44.7 A 16.597 16.597 0 0 1 270.087 42.582 A 13.417 13.417 0 0 1 268.502 40.6 Q 267.002 38.3 267.302 35.6 Q 267.902 29.9 274.202 24.8 A 47.673 47.673 0 0 1 280.031 20.805 Q 283.017 19.048 286.595 17.415 A 96.352 96.352 0 0 1 291.102 15.5 A 16.735 16.735 0 0 1 292.049 15.125 Q 293.681 14.528 296.62 13.709 A 147.216 147.216 0 0 1 296.652 13.7 A 254.089 254.089 0 0 1 299.826 12.84 Q 301.236 12.467 302.792 12.069 A 469.31 469.31 0 0 1 306.052 11.25 Q 311.502 9.9 317.902 8.75 Q 324.302 7.6 330.952 6.85 A 116.859 116.859 0 0 1 342.322 6.112 A 106.956 106.956 0 0 1 343.902 6.1 A 70.575 70.575 0 0 1 351.398 6.481 A 54.687 54.687 0 0 1 357.402 7.45 A 26.457 26.457 0 0 1 361.866 8.835 Q 364.936 10.115 367.102 12.1 A 10.877 10.877 0 0 1 370.504 18.56 A 15.667 15.667 0 0 1 370.702 21.1 L 370.702 22.15 A 5.459 5.459 0 0 1 370.636 23.011 A 4.903 4.903 0 0 1 370.602 23.2 A 12.109 12.109 0 0 1 370.219 25.049 Q 369.685 26.93 368.511 29.282 A 38.333 38.333 0 0 1 368.502 29.3 A 61.579 61.579 0 0 1 366.524 32.928 Q 365.493 34.684 364.259 36.561 A 100.02 100.02 0 0 1 363.902 37.1 A 132.544 132.544 0 0 1 359.541 43.241 A 154.429 154.429 0 0 1 357.652 45.7 Q 354.202 50.1 350.602 54.2 L 352.302 55.5 A 284.49 284.49 0 0 1 365.99 44.906 A 325.7 325.7 0 0 1 370.902 41.4 Q 380.902 34.4 391.252 27.95 Q 401.602 21.5 411.502 16.1 Q 421.402 10.7 430.102 6.75 A 160.482 160.482 0 0 1 436.318 4.076 Q 439.394 2.833 442.134 1.903 A 77.869 77.869 0 0 1 445.302 0.9 Q 447.102 0.3 448.602 0.3 Q 451.602 0.3 451.602 2.5 Q 451.602 4 450.202 6.1 A 4.277 4.277 0 0 1 449.832 6.639 Q 449.625 6.898 449.357 7.17 A 9.669 9.669 0 0 1 448.902 7.6 A 6.902 6.902 0 0 1 448.527 7.912 Q 447.92 8.379 447.536 8.399 A 0.652 0.652 0 0 1 447.502 8.4 A 0.183 0.183 0 0 1 447.397 8.371 Q 447.326 8.323 447.308 8.194 A 0.693 0.693 0 0 1 447.302 8.1 Q 447.302 7.81 447.582 7.148 A 9.501 9.501 0 0 1 447.602 7.1 A 29.807 29.807 0 0 0 448.109 6.039 Q 448.902 4.281 448.902 3.5 A 1.04 1.04 0 0 0 448.834 3.108 Q 448.628 2.6 447.802 2.6 Q 447.43 2.6 446.972 2.686 A 6.465 6.465 0 0 0 446.902 2.7 Q 446.406 2.799 445.811 2.997 A 12.838 12.838 0 0 0 445.802 3 Q 442.107 4.008 437.238 6.076 A 132.128 132.128 0 0 0 432.202 8.35 Q 424.118 12.193 414.49 17.679 A 363.311 363.311 0 0 0 414.452 17.7 Q 404.802 23.2 394.502 29.75 Q 384.202 36.3 374.152 43.45 Q 364.102 50.6 355.302 57.6 Q 369.702 67.3 386.402 72.3 Q 403.102 77.3 421.102 77.3 A 22.92 22.92 0 0 0 422.672 77.242 Q 423.897 77.158 425.352 76.95 Q 427.802 76.6 430.152 75.7 Q 432.502 74.8 434.002 73.25 A 5.277 5.277 0 0 0 435.499 69.614 A 6.895 6.895 0 0 0 435.502 69.4 A 7.547 7.547 0 0 0 435.105 67.009 A 8.573 8.573 0 0 0 435.102 67 Q 435.002 66.6 434.952 66.3 Q 434.902 66 434.902 65.7 Q 434.902 64.5 435.502 64.5 A 0.609 0.609 0 0 1 435.877 64.647 Q 436.25 64.938 436.623 65.809 A 8.597 8.597 0 0 1 436.702 66 Q 437.539 68.324 437.598 70.303 A 10.003 10.003 0 0 1 437.602 70.6 A 9.353 9.353 0 0 1 437.191 73.433 A 7.689 7.689 0 0 1 435.452 76.4 A 13.772 13.772 0 0 1 431.835 79.14 A 17.282 17.282 0 0 1 429.952 80 Q 426.602 81.3 422.902 81.85 Q 419.202 82.4 416.102 82.4 Q 398.502 82.2 382.602 75.95 Q 366.702 69.7 353.002 59.4 A 261.471 261.471 0 0 0 344.486 66.568 Q 340.343 70.217 336.836 73.668 A 151.949 151.949 0 0 0 335.252 75.25 Q 328.882 81.706 326.531 86.548 A 17.352 17.352 0 0 0 325.902 88 Q 325.823 88.158 325.495 88.191 A 1.924 1.924 0 0 1 325.302 88.2 Q 325.011 88.2 324.642 88.068 A 3.738 3.738 0 0 1 324.352 87.95 A 1.805 1.805 0 0 1 324.182 87.863 Q 323.819 87.648 323.902 87.4 A 29.464 29.464 0 0 1 326.169 82.672 Q 327.452 80.475 329.223 78.12 A 72.816 72.816 0 0 1 333.252 73.25 Q 340.302 65.4 350.202 57.2 Z" id="4" vector-effect="non-scaling-stroke"/><path d="M 430.402 59.9 Q 428.202 59.9 426.052 59.25 A 12.027 12.027 0 0 1 422.481 57.462 A 13.906 13.906 0 0 1 422.002 57.1 A 9.905 9.905 0 0 1 419.991 54.92 A 7.653 7.653 0 0 1 418.702 50.6 A 11.183 11.183 0 0 1 419.576 46.344 A 15.474 15.474 0 0 1 420.952 43.75 Q 423.202 40.3 426.502 37.3 Q 429.802 34.3 433.002 32.5 A 6.4 6.4 0 0 1 434.089 31.955 Q 434.624 31.743 435.257 31.584 A 12.438 12.438 0 0 1 435.852 31.45 A 18.04 18.04 0 0 1 438.136 31.138 A 15.346 15.346 0 0 1 439.202 31.1 L 440.352 31.1 A 2.545 2.545 0 0 1 440.805 31.138 A 1.836 1.836 0 0 1 441.302 31.3 Q 443.061 31.792 444.151 32.631 A 4.88 4.88 0 0 1 444.952 33.4 A 5.083 5.083 0 0 1 445.862 35.009 A 4.647 4.647 0 0 1 446.102 36.5 A 6.473 6.473 0 0 1 445.664 38.912 A 5.987 5.987 0 0 1 444.502 40.75 A 11.955 11.955 0 0 1 441.9 42.873 A 14.872 14.872 0 0 1 440.452 43.65 Q 438.002 44.8 435.352 45.5 Q 432.702 46.2 430.452 46.45 Q 428.669 46.648 427.608 46.689 A 13.165 13.165 0 0 1 427.102 46.7 Q 424.802 46.7 423.702 46.4 A 19.578 19.578 0 0 0 422.63 48.197 Q 422.143 49.13 421.847 49.996 A 9.018 9.018 0 0 0 421.502 51.3 Q 421.402 51.6 421.402 51.95 L 421.402 52.6 A 4.825 4.825 0 0 0 422.695 55.894 A 6.793 6.793 0 0 0 423.252 56.45 A 5.215 5.215 0 0 0 424.837 57.389 Q 426.362 57.988 428.696 58.082 A 22.372 22.372 0 0 0 429.602 58.1 A 22.604 22.604 0 0 0 434.561 57.399 A 29.74 29.74 0 0 0 438.252 56.2 A 51.57 51.57 0 0 0 445.859 52.415 A 58.288 58.288 0 0 0 447.252 51.55 Q 451.702 48.7 455.702 45.55 Q 459.702 42.4 462.802 39.7 A 0.675 0.675 0 0 1 463.283 39.5 A 0.886 0.886 0 0 1 463.302 39.5 A 0.591 0.591 0 0 1 463.307 39.5 Q 463.555 39.502 463.63 39.712 A 0.513 0.513 0 0 1 463.652 39.8 Q 463.702 40.1 463.402 40.6 A 11.427 11.427 0 0 1 462.583 41.64 Q 461.638 42.72 460.126 44.047 A 46.409 46.409 0 0 1 459.602 44.5 Q 456.902 46.8 453.752 49.2 Q 450.602 51.6 447.952 53.4 A 133.153 133.153 0 0 1 446.742 54.213 Q 445.282 55.182 444.464 55.653 A 12.879 12.879 0 0 1 444.202 55.8 A 43.831 43.831 0 0 1 439.794 57.835 A 52.102 52.102 0 0 1 437.602 58.65 Q 434.002 59.9 430.402 59.9 Z M 425.902 45.5 A 15.277 15.277 0 0 0 426.724 45.477 Q 427.186 45.452 427.702 45.4 Q 428.702 45.3 429.802 45.1 Q 430.81 44.898 432.179 44.494 A 53.847 53.847 0 0 0 433.602 44.05 A 31.255 31.255 0 0 0 437.226 42.604 A 35.721 35.721 0 0 0 438.252 42.1 A 16.315 16.315 0 0 0 440.659 40.608 A 13.266 13.266 0 0 0 442.202 39.25 Q 443.802 37.6 443.802 35.6 A 2.12 2.12 0 0 0 443.647 34.758 Q 443.193 33.7 441.402 33.7 Q 440.103 33.7 438.431 34.308 A 17.697 17.697 0 0 0 436.802 35 Q 434.138 36.289 431.215 38.575 A 46.417 46.417 0 0 0 430.252 39.35 A 37.727 37.727 0 0 0 426.176 43.241 A 31.98 31.98 0 0 0 424.402 45.4 Q 424.702 45.5 425.102 45.5 L 425.902 45.5 Z" id="5" vector-effect="non-scaling-stroke"/><path d="M 461.579 61.483 A 1.883 1.883 0 0 0 461.802 61.5 A 0.519 0.519 0 0 0 461.888 61.493 Q 462.258 61.431 462.778 60.846 A 6.797 6.797 0 0 0 463.102 60.45 A 25.195 25.195 0 0 0 463.752 59.556 A 31.353 31.353 0 0 0 464.702 58.1 A 16.797 16.797 0 0 1 465.212 57.363 Q 466.13 56.103 467.608 54.481 A 68.274 68.274 0 0 1 469.002 53 Q 472.002 49.9 475.902 46.4 Q 479.802 42.9 483.752 39.8 A 101.169 101.169 0 0 1 484.849 38.951 Q 486.474 37.711 487.974 36.676 A 56.085 56.085 0 0 1 490.952 34.75 Q 493.288 33.348 494.823 32.954 A 4.386 4.386 0 0 1 495.902 32.8 A 3.843 3.843 0 0 1 496.008 32.801 Q 496.702 32.821 496.702 33.1 Q 496.702 33.181 496.57 33.461 A 7.069 7.069 0 0 1 496.502 33.6 A 1.892 1.892 0 0 0 496.481 33.636 Q 496.221 34.093 496.702 33.9 Q 496.886 33.827 497.015 33.726 A 0.765 0.765 0 0 0 497.302 33.3 Q 497.519 32.722 497.579 32.353 A 1.59 1.59 0 0 0 497.602 32.1 A 1.827 1.827 0 0 0 497.595 31.94 Q 497.566 31.603 497.408 31.345 A 1.351 1.351 0 0 0 496.952 30.9 Q 496.302 30.5 495.502 30.5 A 6.47 6.47 0 0 0 495.252 30.505 Q 493.581 30.57 491.418 31.489 A 23.235 23.235 0 0 0 489.352 32.5 A 33.721 33.721 0 0 0 488.286 33.111 Q 485.095 35.013 481.502 38.05 A 104.641 104.641 0 0 0 477.779 41.357 A 131.457 131.457 0 0 0 472.852 46.2 Q 468.402 50.8 464.202 56 A 43.658 43.658 0 0 0 464.599 55.289 Q 465.283 54.038 466.202 52.2 Q 467.402 49.8 468.502 47.3 A 78.731 78.731 0 0 0 468.551 47.19 Q 469.274 45.54 469.731 44.288 A 24.349 24.349 0 0 0 470.102 43.2 A 21.045 21.045 0 0 0 470.456 42.115 A 25.439 25.439 0 0 0 470.952 40.15 A 17.213 17.213 0 0 0 471.137 39.133 A 14.372 14.372 0 0 0 471.302 37 A 7.991 7.991 0 0 0 471.302 36.906 Q 471.293 36.2 471.16 35.588 A 4.6 4.6 0 0 0 470.502 34 A 2.353 2.353 0 0 0 469.532 33.179 Q 468.738 32.8 467.502 32.8 A 4.6 4.6 0 0 0 466.958 32.834 Q 466.543 32.883 466.077 33.005 A 9.857 9.857 0 0 0 465.152 33.3 A 2.734 2.734 0 0 0 464.778 33.47 Q 464.168 33.808 463.939 34.4 A 2.208 2.208 0 0 0 463.802 35.2 Q 463.802 36.1 464.302 36.1 A 0.664 0.664 0 0 0 464.747 35.93 Q 464.856 35.836 464.95 35.69 A 1.939 1.939 0 0 0 465.102 35.4 Q 465.402 34.7 466.102 34.4 A 0.894 0.894 0 0 1 466.748 34.643 Q 467.07 34.952 467.163 35.654 A 4.905 4.905 0 0 1 467.202 36.3 A 8.31 8.31 0 0 1 467.201 36.455 Q 467.187 37.206 467.038 38.03 A 13.755 13.755 0 0 1 466.652 39.6 A 155.798 155.798 0 0 0 466.567 39.879 Q 466.086 41.463 465.902 42.2 Q 465.002 45.2 463.802 48.2 Q 462.602 51.2 461.302 54.1 Q 460.702 55.5 460.002 57.05 A 35.154 35.154 0 0 0 459.788 57.533 A 31.474 31.474 0 0 0 458.802 60.1 A 0.709 0.709 0 0 0 458.794 60.133 Q 458.635 60.808 460.002 61.15 A 34.735 34.735 0 0 0 460.487 61.268 Q 461.211 61.438 461.579 61.483 Z" id="6" vector-effect="non-scaling-stroke"/><path d="M 503.431 60.269 A 12.644 12.644 0 0 0 505.902 60.5 A 23.777 23.777 0 0 0 508.132 60.394 A 27.858 27.858 0 0 0 512.552 59.6 A 81.085 81.085 0 0 0 513.205 59.427 Q 516.186 58.623 517.902 57.9 Q 521.502 56.3 524.952 54.05 A 85.997 85.997 0 0 0 527.455 52.356 A 72.112 72.112 0 0 0 531.252 49.5 A 98.506 98.506 0 0 0 532.536 48.447 Q 533.562 47.589 534.444 46.801 A 50.663 50.663 0 0 0 536.002 45.35 Q 537.442 43.948 538.135 43.149 A 8.316 8.316 0 0 0 538.502 42.7 A 3.625 3.625 0 0 0 538.641 42.515 Q 538.806 42.279 538.867 42.096 A 0.628 0.628 0 0 0 538.902 41.9 A 0.442 0.442 0 0 0 538.889 41.789 Q 538.854 41.653 538.721 41.615 A 0.432 0.432 0 0 0 538.602 41.6 A 1.684 1.684 0 0 0 538.524 41.602 Q 538.41 41.607 538.312 41.628 A 0.881 0.881 0 0 0 538.102 41.7 Q 533.602 45.3 529.402 48.85 Q 525.202 52.4 520.302 54.9 A 40.575 40.575 0 0 1 519.52 55.293 A 44.664 44.664 0 0 1 513.652 57.65 Q 510.102 58.8 506.402 58.8 A 13.501 13.501 0 0 1 506.001 58.794 Q 504.251 58.742 503.248 58.225 A 2.331 2.331 0 0 1 501.902 56 Q 501.902 54.009 504.071 50.788 A 34.983 34.983 0 0 1 505.602 48.7 A 36.749 36.749 0 0 1 507.664 46.345 A 48.014 48.014 0 0 1 510.452 43.65 A 142.399 142.399 0 0 1 511.719 42.529 Q 513.677 40.819 514.902 39.9 A 3.246 3.246 0 0 0 514.986 39.835 Q 515.169 39.688 515.352 39.499 A 5.584 5.584 0 0 0 515.702 39.1 A 2.544 2.544 0 0 0 515.744 39.046 Q 515.886 38.858 515.972 38.67 A 1.364 1.364 0 0 0 516.102 38.1 A 1.219 1.219 0 0 0 515.874 37.378 Q 515.59 36.977 514.952 36.7 A 6.569 6.569 0 0 0 514.238 36.436 A 5.278 5.278 0 0 0 512.702 36.2 A 2.554 2.554 0 0 0 512.631 36.201 Q 512.382 36.208 512.108 36.263 A 4.296 4.296 0 0 0 511.602 36.4 A 12.516 12.516 0 0 0 511.441 36.472 Q 510.496 36.898 509.744 37.429 A 7.267 7.267 0 0 0 508.102 39 Q 506.902 40.6 507.802 40.8 A 17.543 17.543 0 0 0 507.595 40.98 Q 506.703 41.769 505.546 42.994 A 66.263 66.263 0 0 0 504.302 44.35 A 28.391 28.391 0 0 0 504.041 44.646 A 30.581 30.581 0 0 0 500.552 49.6 A 14.145 14.145 0 0 0 500.257 50.146 A 11.825 11.825 0 0 0 498.902 55.6 Q 498.902 58.4 501.002 59.45 A 9.592 9.592 0 0 0 503.431 60.269 Z M 517.702 27.4 A 4.323 4.323 0 0 0 517.703 27.472 Q 517.735 29.4 519.502 29.4 A 2.566 2.566 0 0 0 519.907 29.368 Q 520.355 29.296 520.812 29.068 A 4.674 4.674 0 0 0 521.552 28.6 A 4.621 4.621 0 0 0 522.071 28.14 A 4.801 4.801 0 0 0 523.102 26.5 A 2.419 2.419 0 0 1 523.367 26.085 Q 523.597 25.793 523.935 25.531 A 4.982 4.982 0 0 1 524.602 25.1 A 22.473 22.473 0 0 1 525.479 24.646 A 17.914 17.914 0 0 1 526.702 24.1 A 11.521 11.521 0 0 0 526.813 24.055 Q 527.702 23.689 527.702 23.5 A 0.043 0.043 0 0 0 527.671 23.466 Q 527.535 23.4 526.802 23.4 Q 525.702 23.4 523.752 23.65 A 22.56 22.56 0 0 0 522.793 23.794 A 19.46 19.46 0 0 0 520.102 24.45 A 7.825 7.825 0 0 0 519.525 24.661 Q 518.347 25.147 518.102 25.8 A 4.181 4.181 0 0 0 517.937 26.175 A 3.405 3.405 0 0 0 517.702 27.4 Z" id="7" vector-effect="non-scaling-stroke"/><path d="M 530.502 60.5 L 530.102 60.5 Q 529.102 60.5 529.102 59.3 A 4.865 4.865 0 0 1 529.315 57.901 A 6.069 6.069 0 0 1 529.552 57.25 Q 529.988 56.232 530.096 55.919 A 2.366 2.366 0 0 0 530.102 55.9 Q 530.902 54.2 532.652 51.4 Q 534.402 48.6 536.602 45.45 Q 538.802 42.3 541.202 39.45 Q 543.602 36.6 545.702 34.8 Q 547.802 33 549.302 33 A 0.944 0.944 0 0 1 549.518 33.031 Q 549.872 33.117 550.537 33.441 A 17.512 17.512 0 0 1 550.952 33.65 Q 551.909 34.148 552.485 34.499 A 9.319 9.319 0 0 1 552.802 34.7 A 1.238 1.238 0 0 1 553.066 34.907 A 0.832 0.832 0 0 1 553.302 35.5 A 1.33 1.33 0 0 1 553.271 35.802 Q 553.175 36.214 552.78 36.285 A 1.002 1.002 0 0 1 552.602 36.3 L 552.102 36.3 Q 551.802 36.3 551.502 36.35 A 1.423 1.423 0 0 0 551.322 36.394 Q 551.132 36.452 550.868 36.573 A 8.175 8.175 0 0 0 550.602 36.7 Q 549.102 37.4 546.902 39.25 Q 544.702 41.1 542.302 43.65 Q 539.902 46.2 537.752 48.8 A 106.403 106.403 0 0 0 535.995 50.979 Q 534.946 52.319 534.102 53.5 A 61.063 61.063 0 0 0 533.415 54.481 Q 532.785 55.401 532.409 56.041 A 9.611 9.611 0 0 0 532.102 56.6 A 11.616 11.616 0 0 1 532.782 55.662 Q 533.535 54.714 534.707 53.54 A 43.229 43.229 0 0 1 535.102 53.15 Q 537.202 51.1 539.952 48.9 Q 542.702 46.7 545.652 44.85 A 41.919 41.919 0 0 1 548.716 43.096 A 32.088 32.088 0 0 1 551.302 41.9 A 14.468 14.468 0 0 1 552.94 41.296 Q 553.792 41.042 554.563 40.951 A 7.153 7.153 0 0 1 555.402 40.9 A 5.651 5.651 0 0 1 556.708 41.041 Q 557.642 41.263 558.281 41.833 A 3.357 3.357 0 0 1 558.852 42.5 A 8.366 8.366 0 0 1 559.77 44.412 Q 560.068 45.29 560.231 46.313 A 13.897 13.897 0 0 1 560.252 46.45 Q 560.602 48.8 560.802 51.2 A 22.531 22.531 0 0 0 561.052 52.956 Q 561.385 54.746 561.964 55.827 A 4.401 4.401 0 0 0 562.402 56.5 Q 563.597 57.994 565.486 58 A 4.772 4.772 0 0 0 565.502 58 A 7.333 7.333 0 0 0 566.798 57.877 Q 567.686 57.717 568.702 57.35 Q 570.502 56.7 572.602 55.7 A 60.856 60.856 0 0 0 577.678 52.836 A 76.179 76.179 0 0 0 581.252 50.45 Q 585.702 47.3 589.802 43.9 L 596.102 38.7 Q 596.882 38.115 597.092 38.1 A 0.149 0.149 0 0 1 597.102 38.1 A 0.181 0.181 0 0 1 597.212 38.13 Q 597.496 38.339 596.378 40.017 A 26.442 26.442 0 0 1 596.152 40.35 A 16.09 16.09 0 0 1 594.925 41.897 Q 593.454 43.552 591.102 45.5 Q 588.402 47.7 585.052 50.3 Q 581.702 52.9 578.052 55.2 Q 574.402 57.5 570.752 59 Q 567.106 60.498 563.909 60.5 A 9.738 9.738 0 0 1 563.902 60.5 A 8.645 8.645 0 0 1 562.218 60.347 Q 561.257 60.156 560.52 59.726 A 4.28 4.28 0 0 1 559.452 58.85 Q 558.002 57.2 557.402 54.75 Q 556.802 52.3 556.402 49.8 Q 556.078 47.777 555.46 46.31 A 9.513 9.513 0 0 0 555.152 45.65 A 3.018 3.018 0 0 0 554.235 44.555 Q 553.462 44 552.302 44 Q 551.002 44 549.302 44.7 A 13.571 13.571 0 0 0 548.051 45.299 Q 546.777 45.984 545.202 47.1 A 65.111 65.111 0 0 0 541.456 49.87 A 53.333 53.333 0 0 0 539.452 51.55 A 110.435 110.435 0 0 0 536.44 54.304 A 90.03 90.03 0 0 0 534.802 55.9 Q 534.119 56.583 533.15 57.647 A 93.766 93.766 0 0 0 533.102 57.7 Q 532.102 58.8 531.352 59.65 A 28.548 28.548 0 0 1 531.175 59.849 Q 530.59 60.5 530.502 60.5 Z" id="8" vector-effect="non-scaling-stroke"/><path d="M 650.402 72.3 Q 637.102 72.3 627.602 69.55 A 43.192 43.192 0 0 1 621.111 67.129 Q 617.731 65.527 615.166 63.444 A 23.134 23.134 0 0 1 613.002 61.45 Q 607.902 56.1 607.902 48.5 A 31.236 31.236 0 0 1 611.347 34.358 A 37.696 37.696 0 0 1 612.402 32.4 A 44.352 44.352 0 0 1 620.338 22.431 A 55.243 55.243 0 0 1 625.102 18.4 A 59.35 59.35 0 0 1 637.178 11.404 A 73.897 73.897 0 0 1 644.552 8.65 A 70.717 70.717 0 0 1 659.576 5.713 Q 664.326 5.288 669.402 5.4 A 18.518 18.518 0 0 1 672.921 5.878 A 24.141 24.141 0 0 1 675.552 6.65 Q 678.802 7.8 680.202 8.8 L 685.402 5.2 A 26.166 26.166 0 0 0 687.486 3.606 Q 688.512 2.731 689.313 1.833 A 15.338 15.338 0 0 0 689.602 1.5 Q 691.002 0 691.802 0 A 0.432 0.432 0 0 1 691.921 0.015 Q 692.054 0.053 692.089 0.189 A 0.442 0.442 0 0 1 692.102 0.3 Q 692.102 0.7 691.502 1.6 Q 689.952 3.634 687.464 5.622 A 32.952 32.952 0 0 1 687.302 5.75 A 105.694 105.694 0 0 1 682.522 9.299 A 116.005 116.005 0 0 1 681.802 9.8 Q 683.123 10.88 683.651 11.997 A 3.486 3.486 0 0 1 684.002 13.5 A 7.045 7.045 0 0 1 682.394 17.979 A 9.331 9.331 0 0 1 681.902 18.55 Q 679.802 20.8 677.052 22.1 Q 674.91 23.113 673.102 23.336 A 8.136 8.136 0 0 1 672.102 23.4 Q 669.102 23.4 669.102 21.1 Q 669.102 19.578 670.604 17.268 A 21.116 21.116 0 0 1 671.202 16.4 Q 672.402 14.7 674.152 13.25 A 57.186 57.186 0 0 1 677.345 10.795 A 63.693 63.693 0 0 1 677.902 10.4 A 4.984 4.984 0 0 0 677.04 9.924 Q 676.583 9.724 676.027 9.568 A 11.511 11.511 0 0 0 675.102 9.35 Q 673.865 9.109 672.249 8.94 A 55.775 55.775 0 0 0 670.702 8.8 A 45.504 45.504 0 0 0 669.374 8.686 A 38.609 38.609 0 0 0 668.802 8.65 A 32.683 32.683 0 0 0 667.517 8.605 A 38.156 38.156 0 0 0 666.902 8.6 A 54.217 54.217 0 0 0 653.864 10.237 A 62.103 62.103 0 0 0 651.402 10.9 Q 643.502 13.2 636.202 17.15 A 70.271 70.271 0 0 0 624.763 24.825 A 64.15 64.15 0 0 0 623.102 26.25 A 50.229 50.229 0 0 0 617.336 32.249 A 40.534 40.534 0 0 0 613.902 37.2 A 25.999 25.999 0 0 0 611.406 42.819 A 20.579 20.579 0 0 0 610.502 48.8 Q 610.502 57.9 619.152 63.2 A 28.466 28.466 0 0 0 625.853 66.094 Q 632.667 68.139 642.745 68.446 A 120.274 120.274 0 0 0 646.402 68.5 Q 650.302 68.5 654.802 68.2 A 163.402 163.402 0 0 0 672.548 66.116 A 181.78 181.78 0 0 0 675.152 65.65 Q 685.602 63.7 695.902 60.15 Q 706.202 56.6 715.602 51.2 Q 725.002 45.8 732.802 38.2 Q 732.885 38.117 733.036 38.103 A 0.703 0.703 0 0 1 733.102 38.1 Q 733.261 38.1 733.357 38.29 A 0.822 0.822 0 0 1 733.402 38.4 Q 733.481 38.637 733.311 38.935 A 1.566 1.566 0 0 1 733.202 39.1 Q 726.002 47.2 716.652 53.25 Q 707.302 59.3 696.802 63.4 Q 686.302 67.5 675.652 69.65 A 137.502 137.502 0 0 1 661.77 71.749 A 116.237 116.237 0 0 1 655.302 72.2 Q 654.002 72.3 652.802 72.3 L 650.402 72.3 Z M 673.202 20.3 A 1.447 1.447 0 0 0 673.642 20.221 Q 674.267 20.019 675.202 19.3 A 14.885 14.885 0 0 0 676.664 17.885 Q 677.346 17.12 677.787 16.361 A 6.096 6.096 0 0 0 678.452 14.75 A 122.279 122.279 0 0 0 678.671 13.84 Q 678.941 12.697 679.05 12.108 A 7.719 7.719 0 0 0 679.102 11.8 Q 677.796 12.831 676.773 13.673 A 85.321 85.321 0 0 0 675.902 14.4 A 14.604 14.604 0 0 0 673.957 16.407 A 16.833 16.833 0 0 0 673.502 17 Q 672.782 18.04 672.638 19.016 A 3.312 3.312 0 0 0 672.602 19.5 A 1.568 1.568 0 0 0 672.626 19.79 Q 672.723 20.3 673.202 20.3 Z" id="10" vector-effect="non-scaling-stroke"/><path d="M 753.702 37 L 753.702 37.3 A 2.296 2.296 0 0 1 753.649 37.809 A 1.609 1.609 0 0 1 753.352 38.45 Q 753.002 38.9 752.702 38.9 A 0.618 0.618 0 0 1 752.694 38.9 Q 752.22 38.894 752.203 38.156 A 2.425 2.425 0 0 1 752.202 38.1 A 4.762 4.762 0 0 0 752.19 37.783 Q 752.16 37.333 752.052 36.65 A 3.254 3.254 0 0 0 751.597 35.446 A 4.335 4.335 0 0 0 751.152 34.85 Q 750.601 34.226 749.484 34.06 A 6.026 6.026 0 0 0 748.602 34 A 10.862 10.862 0 0 0 746.324 34.259 Q 745.251 34.489 744.075 34.925 A 22.096 22.096 0 0 0 742.902 35.4 Q 739.702 36.8 736.402 39.15 Q 733.102 41.5 730.202 44.25 Q 727.302 47 725.402 49.7 A 18.45 18.45 0 0 0 724.371 51.329 Q 723.897 52.179 723.607 52.961 A 7.461 7.461 0 0 0 723.202 54.5 A 1.89 1.89 0 0 0 723.102 55.091 A 1.801 1.801 0 0 0 723.102 55.1 L 723.102 55.6 A 6.785 6.785 0 0 0 723.152 56.455 Q 723.27 57.383 723.669 57.899 A 1.682 1.682 0 0 0 723.852 58.1 A 2.562 2.562 0 0 0 725.213 58.754 A 3.584 3.584 0 0 0 725.802 58.8 A 7.215 7.215 0 0 0 727.355 58.619 Q 728.557 58.353 729.952 57.7 A 29.218 29.218 0 0 0 733.987 55.417 A 26.848 26.848 0 0 0 734.302 55.2 Q 736.144 53.911 736.968 53.215 A 9.95 9.95 0 0 0 737.102 53.1 Q 740.302 50.4 744.302 47.15 Q 748.302 43.9 751.402 41.1 Q 751.902 40.8 752.502 40.8 A 4.592 4.592 0 0 1 753.52 40.907 A 3.219 3.219 0 0 1 754.802 41.5 A 1.004 1.004 0 0 1 755.081 42.049 A 1.432 1.432 0 0 1 755.102 42.3 A 2.584 2.584 0 0 1 755.073 42.673 Q 755.016 43.058 754.852 43.55 Q 754.61 44.276 754.227 45.143 A 25.163 25.163 0 0 1 754.202 45.2 A 110.92 110.92 0 0 0 752.829 48.129 Q 752.021 49.925 751.402 51.5 A 21.369 21.369 0 0 0 750.822 53.162 Q 750.302 54.894 750.302 56.2 A 3.89 3.89 0 0 0 750.483 57.439 Q 751.074 59.2 753.602 59.2 A 10.25 10.25 0 0 0 755.198 59.058 Q 757.48 58.694 761.002 57.4 A 50.86 50.86 0 0 0 768.29 53.941 A 60.703 60.703 0 0 0 771.602 51.9 A 113.248 113.248 0 0 0 777.836 47.486 A 93.921 93.921 0 0 0 781.202 44.8 A 32.495 32.495 0 0 1 782.126 44.07 Q 782.553 43.746 782.945 43.475 A 17.995 17.995 0 0 1 783.202 43.3 A 10.136 10.136 0 0 0 784.009 42.698 Q 784.54 42.263 785.102 41.7 A 0.881 0.881 0 0 1 785.312 41.628 Q 785.41 41.607 785.524 41.602 A 1.684 1.684 0 0 1 785.602 41.6 A 0.432 0.432 0 0 1 785.721 41.615 Q 785.854 41.653 785.889 41.789 A 0.442 0.442 0 0 1 785.902 41.9 A 0.628 0.628 0 0 1 785.867 42.096 Q 785.806 42.279 785.641 42.515 A 3.625 3.625 0 0 1 785.502 42.7 Q 784.902 43.5 782.602 45.65 A 62.599 62.599 0 0 1 780.722 47.333 Q 779.663 48.246 778.435 49.235 A 119.603 119.603 0 0 1 776.902 50.45 Q 773.502 53.1 769.552 55.55 A 42.07 42.07 0 0 1 763.848 58.529 A 36.794 36.794 0 0 1 761.602 59.4 Q 760.202 59.867 758.409 60.29 A 52.312 52.312 0 0 1 758.152 60.35 Q 756.202 60.8 754.302 60.8 A 10.133 10.133 0 0 1 751.367 60.389 A 8.641 8.641 0 0 1 749.052 59.3 Q 747.277 58.116 746.902 55.314 A 12.21 12.21 0 0 1 746.802 53.7 A 18.063 18.063 0 0 1 747.23 50.604 A 21.385 21.385 0 0 1 747.552 49.35 Q 748.202 47.1 749.002 45.1 Q 748.007 46.248 746.249 47.983 A 122.552 122.552 0 0 1 745.102 49.1 Q 742.502 51.6 739.252 54.15 A 45.301 45.301 0 0 1 733.661 57.919 A 40.935 40.935 0 0 1 732.602 58.5 Q 729.581 60.1 726.875 60.278 A 10.244 10.244 0 0 1 726.202 60.3 A 6.644 6.644 0 0 1 723.634 59.818 A 6.202 6.202 0 0 1 721.302 58.1 A 4.692 4.692 0 0 1 720.189 55.975 Q 720.002 55.209 720.002 54.3 A 9.944 9.944 0 0 1 720.409 51.565 Q 720.74 50.407 721.341 49.175 A 19.312 19.312 0 0 1 721.852 48.2 A 28.934 28.934 0 0 1 724.633 44.134 A 36.297 36.297 0 0 1 726.752 41.75 Q 729.802 38.6 733.352 36.1 Q 736.902 33.6 740.302 32.5 A 48.106 48.106 0 0 1 742.788 31.775 Q 745.21 31.144 746.946 31.027 A 11.25 11.25 0 0 1 747.702 31 A 8.568 8.568 0 0 1 749.287 31.137 Q 751.003 31.46 751.952 32.55 A 6.234 6.234 0 0 1 752.952 34.165 Q 753.28 34.917 753.491 35.837 A 13.362 13.362 0 0 1 753.702 37 Z" id="11" vector-effect="non-scaling-stroke"/><path d="M 809.902 35.9 L 809.902 36 Q 809.902 37.2 809.102 37.2 A 0.68 0.68 0 0 1 808.609 36.985 Q 808.436 36.812 808.302 36.5 Q 807.818 35.338 806.864 34.128 A 14.117 14.117 0 0 0 806.802 34.05 A 3.046 3.046 0 0 0 805.425 33.093 Q 804.907 32.905 804.263 32.838 A 7.303 7.303 0 0 0 803.502 32.8 A 10.587 10.587 0 0 0 800.393 33.293 Q 799.11 33.686 797.76 34.394 A 20.139 20.139 0 0 0 796.852 34.9 Q 793.302 37 790.052 40.2 A 40.298 40.298 0 0 0 786.159 44.613 A 34.349 34.349 0 0 0 784.602 46.85 Q 783.083 49.232 782.422 51.257 A 10.668 10.668 0 0 0 782.002 53 Q 781.902 53.4 781.902 53.8 L 781.902 54.6 A 5.682 5.682 0 0 0 781.975 55.552 Q 782.263 57.241 783.699 57.298 A 2.567 2.567 0 0 0 783.802 57.3 A 4.369 4.369 0 0 0 784.635 57.214 Q 785.204 57.104 785.852 56.85 Q 787.002 56.4 788.002 55.7 A 91.604 91.604 0 0 0 798.933 47.792 A 99.945 99.945 0 0 0 799.102 47.65 Q 804.502 43.1 809.202 38.1 A 269.68 269.68 0 0 0 817.979 28.377 A 243.371 243.371 0 0 0 819.152 27 A 66.605 66.605 0 0 1 827.055 19.144 A 77.329 77.329 0 0 1 830.102 16.7 Q 831.402 15.7 832.502 15.7 Q 833.596 15.7 834.537 16.799 A 6.245 6.245 0 0 1 835.052 17.5 Q 835.882 18.799 836.113 19.941 A 4.327 4.327 0 0 1 836.202 20.8 Q 836.202 21.4 835.902 21.9 A 2.754 2.754 0 0 1 835.732 22.095 Q 835.543 22.29 835.379 22.36 A 0.449 0.449 0 0 1 835.202 22.4 A 0.207 0.207 0 0 1 835.015 22.29 Q 834.972 22.218 834.952 22.1 Q 834.902 21.8 834.802 21.5 Q 834.71 20.761 833.849 20.705 A 2.256 2.256 0 0 0 833.702 20.7 A 3.712 3.712 0 0 0 832.788 20.822 Q 832.16 20.982 831.452 21.35 Q 830.301 21.949 829.786 22.25 A 9.328 9.328 0 0 0 829.702 22.3 Q 823.602 26.6 817.702 33.4 Q 816.402 35 815.102 36.55 Q 813.802 38.1 812.602 39.7 Q 811.702 40.9 810.102 43.55 A 41.02 41.02 0 0 0 807.45 48.776 A 45.317 45.317 0 0 0 807.252 49.25 A 19.844 19.844 0 0 0 806.49 51.446 Q 806.17 52.597 806.06 53.639 A 10.093 10.093 0 0 0 806.002 54.7 A 5.351 5.351 0 0 0 806.18 56.112 A 4.158 4.158 0 0 0 807.002 57.7 Q 808.002 58.9 810.502 58.9 Q 815.502 58.9 819.952 56.6 A 105.967 105.967 0 0 0 826.82 52.731 A 94.28 94.28 0 0 0 828.302 51.8 Q 835.802 47 842.702 41.1 A 1.997 1.997 0 0 1 842.837 40.976 Q 842.976 40.86 843.09 40.821 A 0.341 0.341 0 0 1 843.202 40.8 A 0.183 0.183 0 0 1 843.307 40.829 Q 843.379 40.877 843.396 41.007 A 0.693 0.693 0 0 1 843.402 41.1 Q 843.402 41.399 843.005 41.996 A 6.658 6.658 0 0 1 843.002 42 Q 842.185 43.062 839.567 45.559 A 156.833 156.833 0 0 1 838.302 46.75 A 54.891 54.891 0 0 1 834.72 49.798 Q 832.827 51.281 830.613 52.791 A 95.431 95.431 0 0 1 829.102 53.8 A 57.813 57.813 0 0 1 823.391 57.206 A 47.809 47.809 0 0 1 820.002 58.8 A 31.091 31.091 0 0 1 813.704 60.675 A 38.772 38.772 0 0 1 809.902 61.2 A 15.73 15.73 0 0 1 809.154 61.236 Q 806.902 61.289 805.472 60.618 A 4.129 4.129 0 0 1 804.052 59.55 A 6.917 6.917 0 0 1 802.476 55.881 A 9.234 9.234 0 0 1 802.402 54.7 A 16.118 16.118 0 0 1 802.741 51.492 A 22.05 22.05 0 0 1 803.602 48.45 Q 804.802 45.1 806.402 42.6 A 0.688 0.688 0 0 0 806.288 42.684 Q 805.933 42.987 804.704 44.298 A 131.021 131.021 0 0 1 804.702 44.3 Q 803.22 45.881 800.957 48.145 A 292.676 292.676 0 0 1 800.902 48.2 Q 798.602 50.5 795.952 52.8 A 48.467 48.467 0 0 1 792.308 55.679 A 41.221 41.221 0 0 1 790.652 56.8 A 19.652 19.652 0 0 1 789.059 57.726 Q 788.221 58.158 787.46 58.426 A 7.965 7.965 0 0 1 786.002 58.8 A 1.487 1.487 0 0 1 785.798 58.851 Q 785.585 58.889 785.283 58.898 A 6.387 6.387 0 0 1 785.102 58.9 Q 783.802 58.9 782.652 58.25 Q 781.502 57.6 780.702 56.6 Q 779.902 55.8 779.552 54.7 Q 779.202 53.6 779.202 52.5 Q 779.202 49.963 780.68 47.138 A 18.094 18.094 0 0 1 781.002 46.55 A 32.575 32.575 0 0 1 783.926 42.29 A 38.907 38.907 0 0 1 785.552 40.4 Q 788.302 37.4 791.452 35.05 Q 794.147 33.04 796.512 31.871 A 21.45 21.45 0 0 1 797.302 31.5 A 12.847 12.847 0 0 1 800.86 30.646 A 11.796 11.796 0 0 1 801.902 30.6 Q 805.102 30.6 807.602 32.3 A 7.277 7.277 0 0 1 808.549 33.083 A 5.712 5.712 0 0 1 809.202 33.85 A 3.791 3.791 0 0 1 809.791 35.184 A 4.91 4.91 0 0 1 809.902 35.9 Z" id="12" vector-effect="non-scaling-stroke"/><path d="M 866.202 37 L 866.202 37.3 A 2.296 2.296 0 0 1 866.149 37.809 A 1.609 1.609 0 0 1 865.852 38.45 Q 865.502 38.9 865.202 38.9 A 0.618 0.618 0 0 1 865.194 38.9 Q 864.72 38.894 864.703 38.156 A 2.425 2.425 0 0 1 864.702 38.1 A 4.762 4.762 0 0 0 864.69 37.783 Q 864.66 37.333 864.552 36.65 A 3.254 3.254 0 0 0 864.097 35.446 A 4.335 4.335 0 0 0 863.652 34.85 Q 863.101 34.226 861.984 34.06 A 6.026 6.026 0 0 0 861.102 34 A 10.862 10.862 0 0 0 858.824 34.259 Q 857.751 34.489 856.575 34.925 A 22.096 22.096 0 0 0 855.402 35.4 Q 852.202 36.8 848.902 39.15 Q 845.602 41.5 842.702 44.25 Q 839.802 47 837.902 49.7 A 18.45 18.45 0 0 0 836.871 51.329 Q 836.397 52.179 836.107 52.961 A 7.461 7.461 0 0 0 835.702 54.5 A 1.89 1.89 0 0 0 835.602 55.091 A 1.801 1.801 0 0 0 835.602 55.1 L 835.602 55.6 A 6.785 6.785 0 0 0 835.652 56.455 Q 835.77 57.383 836.169 57.899 A 1.682 1.682 0 0 0 836.352 58.1 A 2.562 2.562 0 0 0 837.713 58.754 A 3.584 3.584 0 0 0 838.302 58.8 A 7.215 7.215 0 0 0 839.855 58.619 Q 841.057 58.353 842.452 57.7 A 29.218 29.218 0 0 0 846.487 55.417 A 26.848 26.848 0 0 0 846.802 55.2 Q 848.644 53.911 849.468 53.215 A 9.95 9.95 0 0 0 849.602 53.1 Q 852.802 50.4 856.802 47.15 Q 860.802 43.9 863.902 41.1 Q 864.402 40.8 865.002 40.8 A 4.592 4.592 0 0 1 866.02 40.907 A 3.219 3.219 0 0 1 867.302 41.5 A 1.004 1.004 0 0 1 867.581 42.049 A 1.432 1.432 0 0 1 867.602 42.3 A 2.584 2.584 0 0 1 867.573 42.673 Q 867.516 43.058 867.352 43.55 Q 867.11 44.276 866.727 45.143 A 25.163 25.163 0 0 1 866.702 45.2 A 110.92 110.92 0 0 0 865.329 48.129 Q 864.521 49.925 863.902 51.5 A 21.369 21.369 0 0 0 863.322 53.162 Q 862.802 54.894 862.802 56.2 A 3.89 3.89 0 0 0 862.983 57.439 Q 863.574 59.2 866.102 59.2 A 10.25 10.25 0 0 0 867.698 59.058 Q 869.98 58.694 873.502 57.4 A 50.86 50.86 0 0 0 880.79 53.941 A 60.703 60.703 0 0 0 884.102 51.9 A 113.248 113.248 0 0 0 890.336 47.486 A 93.921 93.921 0 0 0 893.702 44.8 A 32.495 32.495 0 0 1 894.626 44.07 Q 895.053 43.746 895.445 43.475 A 17.995 17.995 0 0 1 895.702 43.3 A 10.136 10.136 0 0 0 896.509 42.698 Q 897.04 42.263 897.602 41.7 A 0.881 0.881 0 0 1 897.812 41.628 Q 897.91 41.607 898.024 41.602 A 1.684 1.684 0 0 1 898.102 41.6 A 0.432 0.432 0 0 1 898.221 41.615 Q 898.354 41.653 898.389 41.789 A 0.442 0.442 0 0 1 898.402 41.9 A 0.628 0.628 0 0 1 898.367 42.096 Q 898.306 42.279 898.141 42.515 A 3.625 3.625 0 0 1 898.002 42.7 Q 897.402 43.5 895.102 45.65 A 62.599 62.599 0 0 1 893.222 47.333 Q 892.163 48.246 890.935 49.235 A 119.603 119.603 0 0 1 889.402 50.45 Q 886.002 53.1 882.052 55.55 A 42.07 42.07 0 0 1 876.348 58.529 A 36.794 36.794 0 0 1 874.102 59.4 Q 872.702 59.867 870.909 60.29 A 52.312 52.312 0 0 1 870.652 60.35 Q 868.702 60.8 866.802 60.8 A 10.133 10.133 0 0 1 863.867 60.389 A 8.641 8.641 0 0 1 861.552 59.3 Q 859.777 58.116 859.402 55.314 A 12.21 12.21 0 0 1 859.302 53.7 A 18.063 18.063 0 0 1 859.73 50.604 A 21.385 21.385 0 0 1 860.052 49.35 Q 860.702 47.1 861.502 45.1 Q 860.507 46.248 858.749 47.983 A 122.552 122.552 0 0 1 857.602 49.1 Q 855.002 51.6 851.752 54.15 A 45.301 45.301 0 0 1 846.161 57.919 A 40.935 40.935 0 0 1 845.102 58.5 Q 842.081 60.1 839.375 60.278 A 10.244 10.244 0 0 1 838.702 60.3 A 6.644 6.644 0 0 1 836.134 59.818 A 6.202 6.202 0 0 1 833.802 58.1 A 4.692 4.692 0 0 1 832.689 55.975 Q 832.502 55.209 832.502 54.3 A 9.944 9.944 0 0 1 832.909 51.565 Q 833.24 50.407 833.841 49.175 A 19.312 19.312 0 0 1 834.352 48.2 A 28.934 28.934 0 0 1 837.133 44.134 A 36.297 36.297 0 0 1 839.252 41.75 Q 842.302 38.6 845.852 36.1 Q 849.402 33.6 852.802 32.5 A 48.106 48.106 0 0 1 855.288 31.775 Q 857.71 31.144 859.446 31.027 A 11.25 11.25 0 0 1 860.202 31 A 8.568 8.568 0 0 1 861.787 31.137 Q 863.503 31.46 864.452 32.55 A 6.234 6.234 0 0 1 865.452 34.165 Q 865.78 34.917 865.991 35.837 A 13.362 13.362 0 0 1 866.202 37 Z" id="13" vector-effect="non-scaling-stroke"/><path d="M 912.002 36.3 L 911.502 36.3 Q 910.432 36.3 908.691 37.41 A 19.063 19.063 0 0 0 907.552 38.2 Q 905.361 39.833 902.874 42.204 A 75.185 75.185 0 0 0 902.052 43 Q 899.102 45.9 896.302 49 A 113.676 113.676 0 0 0 894.015 51.607 Q 892.99 52.814 892.117 53.922 A 64.283 64.283 0 0 0 891.552 54.65 Q 889.71 57.058 889.162 58.173 A 4.616 4.616 0 0 0 889.102 58.3 Q 890.202 57 892.702 54.75 Q 895.202 52.5 898.302 49.95 Q 901.402 47.4 904.602 45.1 Q 907.465 43.043 909.927 41.625 A 43.589 43.589 0 0 1 910.502 41.3 A 20.944 20.944 0 0 1 911.777 40.644 Q 913.577 39.8 914.702 39.8 A 4.442 4.442 0 0 1 916.677 40.281 Q 917.282 40.578 917.881 41.059 A 8.255 8.255 0 0 1 918.052 41.2 A 6.451 6.451 0 0 1 918.868 42.018 Q 919.702 43.034 919.702 44.1 Q 919.702 45.443 919.314 47.139 A 21.687 21.687 0 0 1 919.152 47.8 Q 918.602 49.9 917.952 51.75 Q 917.454 53.166 917.103 54.085 A 36.482 36.482 0 0 1 916.902 54.6 Q 917.581 54.072 918.657 52.749 A 38.195 38.195 0 0 0 919.402 51.8 Q 921.002 49.7 922.852 47.35 A 39.696 39.696 0 0 1 924.083 45.858 Q 925.218 44.553 926.202 43.7 A 14.501 14.501 0 0 1 926.824 43.164 Q 927.425 42.677 927.898 42.427 A 3.456 3.456 0 0 1 928.052 42.35 Q 928.802 42 929.202 42 A 1.304 1.304 0 0 1 929.663 42.077 Q 930.016 42.209 930.217 42.569 A 1.561 1.561 0 0 1 930.302 42.75 Q 930.602 43.5 930.702 44.2 Q 930.932 45.119 931.22 46.594 A 108.265 108.265 0 0 1 931.402 47.55 A 21.587 21.587 0 0 0 932.094 50.245 A 27 27 0 0 0 932.752 52.05 Q 933.702 54.4 935.602 56.1 Q 936.402 56.8 937.402 57.05 Q 938.402 57.3 939.602 57.3 A 14.11 14.11 0 0 0 941.947 57.094 A 18.514 18.514 0 0 0 943.902 56.65 A 31.972 31.972 0 0 0 945.8 56.053 Q 946.767 55.713 947.599 55.34 A 18.662 18.662 0 0 0 947.902 55.2 Q 952.102 53.1 956.102 50.2 A 153.569 153.569 0 0 0 962.158 45.569 A 171.866 171.866 0 0 0 964.202 43.9 L 970.502 38.7 Q 971.282 38.115 971.492 38.1 A 0.149 0.149 0 0 1 971.502 38.1 A 0.106 0.106 0 0 1 971.621 38.194 Q 971.677 38.507 970.777 39.87 A 29.851 29.851 0 0 1 970.452 40.35 Q 968.918 42.577 965.573 45.439 A 56.008 56.008 0 0 1 965.502 45.5 Q 963.852 46.806 961.824 48.396 A 1487.655 1487.655 0 0 1 959.902 49.9 Q 956.702 52.4 953.152 54.65 A 48.487 48.487 0 0 1 947.35 57.811 A 43.525 43.525 0 0 1 946.002 58.4 A 54.187 54.187 0 0 1 943.46 59.268 A 46.144 46.144 0 0 1 942.352 59.6 Q 940.602 60.1 938.902 60.1 A 13.499 13.499 0 0 1 936.436 59.888 Q 935.033 59.627 933.913 59.045 A 7.343 7.343 0 0 1 932.952 58.45 Q 930.702 56.8 929.552 54.35 A 25.91 25.91 0 0 1 928.301 51.177 A 21.863 21.863 0 0 1 927.852 49.55 A 57.503 57.503 0 0 0 927.513 48.174 Q 927.158 46.808 926.824 45.863 A 16.537 16.537 0 0 0 926.802 45.8 Q 925.21 47.205 923.574 49.267 A 37.805 37.805 0 0 0 923.352 49.55 A 100.464 100.464 0 0 0 921.088 52.573 A 85.016 85.016 0 0 0 920.152 53.9 Q 918.702 56 917.902 57 A 4.133 4.133 0 0 1 917.248 57.686 Q 916.719 58.118 916.12 58.246 A 2.467 2.467 0 0 1 915.602 58.3 A 1.908 1.908 0 0 1 914.241 57.738 A 2.504 2.504 0 0 1 914.202 57.7 Q 913.602 57.1 913.602 55.9 A 7.734 7.734 0 0 1 913.686 54.81 Q 913.836 53.763 914.252 52.45 Q 914.902 50.4 915.552 48.25 Q 916.05 46.604 916.166 45.28 A 8.896 8.896 0 0 0 916.202 44.5 A 5.122 5.122 0 0 0 916.161 43.825 Q 916.045 42.956 915.602 42.55 A 2.076 2.076 0 0 0 914.349 42.011 A 2.752 2.752 0 0 0 914.102 42 A 4.631 4.631 0 0 0 912.995 42.144 Q 912.246 42.328 911.402 42.75 A 35.992 35.992 0 0 0 910.166 43.397 Q 909.607 43.704 909.119 44.002 A 20.887 20.887 0 0 0 908.802 44.2 Q 907.881 44.845 905.985 46.38 A 162.641 162.641 0 0 0 905.652 46.65 A 176.249 176.249 0 0 0 903.399 48.517 Q 902.216 49.513 900.922 50.632 A 280 280 0 0 0 900.902 50.65 Q 898.302 52.9 895.802 55.3 Q 892.602 58.3 890.302 60.55 A 32.98 32.98 0 0 1 889.496 61.315 Q 887.899 62.774 887.322 62.8 A 0.457 0.457 0 0 1 887.302 62.8 A 5.406 5.406 0 0 1 886.662 62.766 Q 886.016 62.688 885.702 62.436 A 0.774 0.774 0 0 1 885.402 61.8 Q 885.402 61.3 885.852 60.65 A 32.01 32.01 0 0 0 886.009 60.422 Q 886.321 59.963 886.402 59.8 A 20.673 20.673 0 0 1 886.983 58.553 Q 887.796 56.935 889.202 54.65 Q 891.202 51.4 893.902 47.7 Q 896.602 44 899.452 40.65 A 70.15 70.15 0 0 1 901.533 38.306 Q 903.221 36.494 904.752 35.15 Q 906.557 33.566 907.847 33.149 A 2.793 2.793 0 0 1 908.702 33 A 0.944 0.944 0 0 1 908.918 33.031 Q 909.272 33.117 909.937 33.441 A 17.512 17.512 0 0 1 910.352 33.65 Q 911.309 34.148 911.885 34.499 A 9.319 9.319 0 0 1 912.202 34.7 A 1.238 1.238 0 0 1 912.466 34.907 A 0.832 0.832 0 0 1 912.702 35.5 A 1.33 1.33 0 0 1 912.671 35.802 Q 912.575 36.214 912.18 36.285 A 1.002 1.002 0 0 1 912.002 36.3 Z" id="14" vector-effect="non-scaling-stroke"/><path d="M 950.195 87.484 A 0.517 0.517 0 0 0 950.302 87.5 A 3.095 3.095 0 0 0 950.398 87.499 Q 950.784 87.487 951.005 87.376 A 0.497 0.497 0 0 0 951.302 86.9 A 0.344 0.344 0 0 0 951.258 86.727 Q 951.112 86.47 950.479 86.415 A 4.402 4.402 0 0 0 950.102 86.4 A 2.125 2.125 0 0 1 949.982 86.397 Q 949.413 86.365 949.015 86.022 A 1.897 1.897 0 0 1 948.602 85.5 Q 948.102 84.6 947.902 83.55 Q 947.702 82.5 947.702 82 Q 947.58 79.561 948.146 76.787 A 30.994 30.994 0 0 1 949.152 73.1 A 52.104 52.104 0 0 1 950.632 69.234 A 63.662 63.662 0 0 1 953.702 63.05 Q 956.602 57.9 960.002 53.05 A 138.794 138.794 0 0 1 962.748 49.266 A 111.267 111.267 0 0 1 966.702 44.3 A 175.396 175.396 0 0 1 968.682 41.999 Q 970.768 39.619 972.452 37.9 Q 974.366 35.947 975.395 35.276 A 2.997 2.997 0 0 1 975.902 35 A 16.405 16.405 0 0 1 976.06 34.954 Q 977.188 34.635 978.83 34.336 A 61.27 61.27 0 0 1 980.552 34.05 A 37.417 37.417 0 0 1 982.43 33.813 A 43.465 43.465 0 0 1 986.802 33.6 Q 989.902 33.6 992.652 34.15 Q 993.941 34.408 995.021 34.841 A 9.526 9.526 0 0 1 997.202 36.05 A 4.302 4.302 0 0 1 998.727 38.085 A 5.117 5.117 0 0 1 999.002 39.8 A 6.143 6.143 0 0 1 998.926 40.793 A 4.51 4.51 0 0 1 998.602 41.9 A 180.748 180.748 0 0 0 993.877 42.761 A 154.559 154.559 0 0 0 984.102 45 Q 979.852 46.125 976.344 47.27 A 91.81 91.81 0 0 0 972.402 48.65 A 51.611 51.611 0 0 0 970.936 49.228 Q 968.498 50.235 966.896 51.227 A 12.026 12.026 0 0 0 965.402 52.3 A 11.911 11.911 0 0 0 964.934 52.748 Q 964.189 53.504 963.802 54.2 A 5.262 5.262 0 0 0 963.729 54.336 Q 963.302 55.161 963.302 55.9 Q 963.302 57.31 964.569 58.252 A 5.682 5.682 0 0 0 965.602 58.85 A 11.196 11.196 0 0 0 968.16 59.654 A 14.595 14.595 0 0 0 970.902 59.9 A 25.737 25.737 0 0 0 972.176 59.867 Q 974.346 59.759 977.102 59.3 A 44.072 44.072 0 0 0 979.613 58.805 A 52.661 52.661 0 0 0 984.602 57.4 Q 988.502 56.1 992.002 54.15 A 26.35 26.35 0 0 0 993.483 53.261 A 22.449 22.449 0 0 0 997.952 49.5 Q 1000.402 46.8 1001.102 43.4 Q 1005.902 42.5 1010.702 41.9 Q 1014.827 41.384 1017.18 41.46 A 14.179 14.179 0 0 1 1017.902 41.5 Q 1018.908 41.5 1019.135 41.38 A 0.099 0.099 0 0 0 1019.202 41.3 Q 1019.202 41.138 1018.806 40.909 A 3.899 3.899 0 0 0 1018.602 40.8 L 1017.802 40.4 A 4.661 4.661 0 0 0 1017.437 40.307 Q 1016.794 40.17 1015.848 40.124 A 21.417 21.417 0 0 0 1014.802 40.1 Q 1012.102 40.1 1008.652 40.5 Q 1005.202 40.9 1001.302 41.5 Q 1001.302 39.4 1000.152 37.6 A 15.24 15.24 0 0 0 999.466 36.609 Q 999.08 36.099 998.699 35.704 A 6.114 6.114 0 0 0 997.902 35 Q 995.002 32.8 991.452 32.1 Q 987.902 31.4 984.702 31.4 Q 981.802 31.4 979.502 31.7 Q 977.202 32 976.202 32.2 Q 975.502 31.8 974.502 31.8 Q 973.44 31.8 972.24 32.191 A 11.602 11.602 0 0 0 970.752 32.8 A 18.874 18.874 0 0 0 969.073 33.723 A 14.461 14.461 0 0 0 967.252 35.05 Q 966.25 35.914 965.892 36.611 A 1.717 1.717 0 0 0 965.702 37.2 Q 965.702 37.531 966.388 37.588 A 3.82 3.82 0 0 0 966.702 37.6 A 16.037 16.037 0 0 0 967.246 37.59 A 20.299 20.299 0 0 0 968.002 37.55 Q 968.702 37.5 969.402 37.4 Q 967.702 38.7 964.652 42.2 A 84.509 84.509 0 0 0 963.784 43.212 Q 961.103 46.389 958.052 50.6 Q 954.502 55.5 951.302 60.9 A 81.863 81.863 0 0 0 949.414 64.26 A 69.496 69.496 0 0 0 946.052 71.55 A 39.014 39.014 0 0 0 945.522 72.988 Q 944.002 77.383 944.002 81 Q 944.002 81.244 944.134 82.115 A 53.995 53.995 0 0 0 944.202 82.55 Q 944.296 83.136 944.477 83.623 A 3.871 3.871 0 0 0 945.002 84.6 A 5.959 5.959 0 0 0 945.488 85.031 Q 945.756 85.246 946.087 85.472 A 14.987 14.987 0 0 0 946.752 85.9 Q 947.902 86.6 949.002 87.05 A 30.801 30.801 0 0 0 949.304 87.172 Q 949.95 87.428 950.195 87.484 Z M 970.402 56.8 A 23.4 23.4 0 0 0 972.578 56.69 Q 973.697 56.585 974.973 56.38 A 52.424 52.424 0 0 0 977.052 56 Q 981.002 55.2 984.602 53.6 Q 988.702 51.9 992.102 49.35 A 30.167 30.167 0 0 0 994.59 47.28 Q 996.23 45.749 997.302 44.2 Q 992.302 45.3 987.252 46.65 Q 982.202 48 977.952 49.45 A 65.682 65.682 0 0 0 974.969 50.545 Q 972.652 51.463 970.902 52.4 A 22.911 22.911 0 0 0 969.816 52.951 Q 968.821 53.491 968.209 53.984 A 5.129 5.129 0 0 0 967.902 54.25 A 6.589 6.589 0 0 0 967.551 54.605 Q 967.002 55.209 967.002 55.6 Q 967.002 56.681 969.761 56.788 A 16.539 16.539 0 0 0 970.402 56.8 Z" id="15" vector-effect="non-scaling-stroke"/><path d="M 1014.952 59.6 A 4.505 4.505 0 0 0 1016.487 60.8 Q 1017.917 61.5 1020.102 61.5 Q 1022.18 61.5 1024.576 60.954 A 31.281 31.281 0 0 0 1028.002 59.95 Q 1032.402 58.4 1036.652 55.65 A 38.919 38.919 0 0 0 1036.917 55.477 A 34.981 34.981 0 0 0 1044.052 49.3 A 21.54 21.54 0 0 0 1045.654 47.235 A 17.234 17.234 0 0 0 1048.202 41.6 Q 1050.302 41.6 1052.102 41.55 A 88.89 88.89 0 0 0 1053.178 41.514 Q 1054.308 41.469 1055.202 41.4 A 56.859 56.859 0 0 0 1056.445 41.337 A 50.883 50.883 0 0 0 1064.752 40.15 A 80.028 80.028 0 0 0 1066.218 39.798 Q 1068.504 39.225 1070.079 38.666 A 17.987 17.987 0 0 0 1071.502 38.1 A 9.074 9.074 0 0 0 1071.619 38.048 Q 1073.102 37.374 1073.102 36.7 A 0.421 0.421 0 0 0 1073.101 36.673 Q 1073.084 36.4 1072.702 36.4 A 1.006 1.006 0 0 0 1072.531 36.416 Q 1072.163 36.48 1071.602 36.8 A 9.111 9.111 0 0 1 1071.304 36.942 Q 1069.923 37.571 1067.452 38.2 A 48.215 48.215 0 0 1 1065.135 38.728 A 59.985 59.985 0 0 1 1061.452 39.35 Q 1058.202 39.8 1055.202 39.8 L 1052.002 39.8 Q 1050.302 39.8 1048.602 39.7 A 6.997 6.997 0 0 0 1048.626 39.549 Q 1048.724 38.867 1048.696 38.122 A 9.855 9.855 0 0 0 1048.602 37.1 Q 1048.202 33.9 1045.802 32.6 A 10.368 10.368 0 0 0 1043.388 31.664 A 12.588 12.588 0 0 0 1040.302 31.3 A 19.518 19.518 0 0 0 1038.982 31.347 Q 1036.735 31.499 1033.902 32.15 A 24.079 24.079 0 0 0 1030.645 33.152 A 29.955 29.955 0 0 0 1026.402 35.2 Q 1026.002 35 1025.652 34.7 Q 1025.302 34.4 1024.902 34.1 Q 1024.502 33.8 1024.002 33.8 Q 1023.502 33.8 1023.052 34.25 Q 1022.602 34.7 1022.602 35.4 A 1.804 1.804 0 0 0 1022.664 35.862 Q 1022.735 36.129 1022.886 36.41 A 3.875 3.875 0 0 0 1023.202 36.9 A 4.363 4.363 0 0 0 1023.643 37.398 Q 1023.932 37.68 1024.308 37.963 A 10.385 10.385 0 0 0 1025.102 38.5 A 12.155 12.155 0 0 0 1026.358 39.095 Q 1028.05 39.787 1030.402 40.25 A 49.175 49.175 0 0 0 1033.064 40.697 A 60.442 60.442 0 0 0 1037.552 41.15 Q 1041.402 41.4 1045.102 41.5 A 21.671 21.671 0 0 1 1044.275 43 A 26.063 26.063 0 0 1 1042.552 45.5 A 28.512 28.512 0 0 1 1041.569 46.701 A 24.098 24.098 0 0 1 1039.302 49 Q 1036.502 51.6 1033.252 53.9 A 53.402 53.402 0 0 1 1030.271 55.87 A 40.045 40.045 0 0 1 1027.052 57.65 Q 1024.102 59.1 1022.102 59.5 A 33.737 33.737 0 0 1 1021.908 59.527 Q 1021.622 59.566 1021.362 59.597 A 20.106 20.106 0 0 1 1020.852 59.65 A 12.957 12.957 0 0 1 1020.563 59.673 A 11.163 11.163 0 0 1 1019.802 59.7 A 9.716 9.716 0 0 1 1019.404 59.692 Q 1017.72 59.623 1017.002 58.95 A 2.435 2.435 0 0 1 1016.344 57.932 A 2.927 2.927 0 0 1 1016.202 57 A 5.194 5.194 0 0 1 1016.257 56.259 Q 1016.43 55.056 1017.152 53.65 A 27.928 27.928 0 0 1 1017.76 52.528 A 23.578 23.578 0 0 1 1019.202 50.3 A 51.25 51.25 0 0 1 1019.442 50.04 Q 1020.497 48.905 1022.152 47.25 A 26.547 26.547 0 0 1 1023.771 45.756 A 20.502 20.502 0 0 1 1025.852 44.2 A 8.639 8.639 0 0 1 1026.22 43.974 Q 1027.301 43.347 1028.021 43.405 A 1.203 1.203 0 0 1 1028.602 43.6 A 3.059 3.059 0 0 0 1028.692 43.662 Q 1029.274 44.047 1029.255 43.59 A 0.834 0.834 0 0 0 1029.252 43.55 A 2.93 2.93 0 0 0 1029.234 43.392 Q 1029.172 42.97 1029.002 42.8 Q 1029.002 42.6 1028.052 42.05 Q 1027.102 41.5 1026.052 41.05 A 10.157 10.157 0 0 0 1025.995 41.026 Q 1024.991 40.603 1024.602 40.7 A 6.722 6.722 0 0 0 1023.667 40.951 Q 1022.778 41.258 1021.87 41.828 A 13.002 13.002 0 0 0 1020.302 43 Q 1018.102 44.9 1016.402 47.4 Q 1014.702 49.9 1013.902 52.3 Q 1013.602 53 1013.502 53.75 A 10.86 10.86 0 0 0 1013.496 53.797 A 11.751 11.751 0 0 0 1013.402 55.3 Q 1013.402 57.7 1014.952 59.6 Z M 1045.902 39.6 Q 1046.302 38.5 1046.302 37.3 A 3.779 3.779 0 0 0 1045.121 34.514 A 4.892 4.892 0 0 0 1045.002 34.4 A 3.807 3.807 0 0 0 1043.884 33.705 Q 1042.602 33.166 1040.502 33.1 A 26.124 26.124 0 0 0 1034.586 33.757 A 24.232 24.232 0 0 0 1034.002 33.9 A 26.093 26.093 0 0 0 1029.633 35.438 A 23.283 23.283 0 0 0 1028.302 36.1 A 33.454 33.454 0 0 0 1033.905 38.012 A 40.016 40.016 0 0 0 1036.702 38.6 Q 1041.302 39.4 1045.902 39.6 Z" id="16" vector-effect="non-scaling-stroke"/><path d="M 1091.602 37 L 1091.602 37.3 A 2.296 2.296 0 0 1 1091.549 37.809 A 1.609 1.609 0 0 1 1091.252 38.45 Q 1090.902 38.9 1090.602 38.9 A 0.618 0.618 0 0 1 1090.594 38.9 Q 1090.12 38.894 1090.103 38.156 A 2.425 2.425 0 0 1 1090.102 38.1 Q 1090.102 37.684 1089.929 36.957 A 13.3 13.3 0 0 0 1089.852 36.65 Q 1089.602 35.7 1088.702 34.9 Q 1088.012 34.286 1086.792 34.143 A 6.796 6.796 0 0 0 1086.002 34.1 Q 1082.902 34.1 1079.152 36.25 A 36.851 36.851 0 0 0 1073.891 39.935 A 43.567 43.567 0 0 0 1071.902 41.7 A 45.331 45.331 0 0 0 1067.957 45.903 A 37.609 37.609 0 0 0 1066.002 48.5 Q 1063.602 52 1063.202 54.7 A 3.947 3.947 0 0 0 1063.141 54.986 Q 1063.102 55.213 1063.102 55.4 L 1063.102 56 A 5.612 5.612 0 0 0 1063.192 57.054 Q 1063.547 58.9 1065.302 58.9 Q 1066.439 58.9 1067.854 58.269 A 12.648 12.648 0 0 0 1069.052 57.65 Q 1071.202 56.4 1073.152 54.9 Q 1075.102 53.4 1075.902 52.7 Q 1078.602 50.4 1081.552 47.85 Q 1084.502 45.3 1087.302 42.8 A 0.578 0.578 0 0 1 1087.097 42.548 Q 1087.008 42.351 1087.002 42.042 A 2.317 2.317 0 0 1 1087.002 42 A 1.596 1.596 0 0 1 1087.091 41.493 Q 1087.223 41.098 1087.552 40.65 A 1.596 1.596 0 0 1 1088.23 40.131 Q 1088.77 39.9 1089.602 39.9 A 6.364 6.364 0 0 1 1090.921 40.027 Q 1091.688 40.19 1092.253 40.561 A 3.076 3.076 0 0 1 1093.202 41.55 A 6.544 6.544 0 0 1 1093.967 43.478 Q 1094.158 44.299 1094.194 45.253 A 11.936 11.936 0 0 1 1094.202 45.7 Q 1094.202 48.343 1093.326 51.681 A 39.632 39.632 0 0 1 1092.752 53.65 A 74.151 74.151 0 0 1 1089.52 62.043 A 68.485 68.485 0 0 1 1089.402 62.3 A 20.297 20.297 0 0 1 1092.5 62.679 A 25.025 25.025 0 0 1 1094.452 63.15 A 7.366 7.366 0 0 1 1095.692 63.615 Q 1097.233 64.371 1097.602 65.7 A 0.588 0.588 0 0 1 1097.647 65.78 Q 1097.752 66.007 1097.543 66.171 A 0.647 0.647 0 0 1 1097.502 66.2 Q 1097.212 66.393 1097.109 66.027 A 0.936 0.936 0 0 1 1097.102 66 A 2.654 2.654 0 0 0 1096.212 65.011 Q 1095.326 64.397 1093.752 64.1 A 24.411 24.411 0 0 0 1091.151 63.747 Q 1090.346 63.683 1089.578 63.683 A 17.873 17.873 0 0 0 1088.802 63.7 A 46.463 46.463 0 0 1 1087.783 65.958 A 38.251 38.251 0 0 1 1087.152 67.2 Q 1086.302 68.8 1085.602 70.1 Q 1082.302 76.1 1078.052 81.3 A 69.055 69.055 0 0 1 1071.396 88.397 A 61.178 61.178 0 0 1 1069.052 90.45 A 50.67 50.67 0 0 1 1063.857 94.262 A 39.724 39.724 0 0 1 1059.552 96.65 Q 1054.802 98.9 1050.502 98.9 A 17.366 17.366 0 0 1 1046.887 98.508 A 19.726 19.726 0 0 1 1046.202 98.35 Q 1044.002 97.8 1042.452 96.3 Q 1041.075 94.967 1040.921 92.528 A 10.015 10.015 0 0 1 1040.902 91.9 Q 1040.902 88.2 1042.952 84.85 A 26.926 26.926 0 0 1 1047.043 79.736 A 31.197 31.197 0 0 1 1048.202 78.65 Q 1051.402 75.8 1054.902 73.6 A 91.387 91.387 0 0 1 1061.746 69.569 A 104.023 104.023 0 0 1 1064.202 68.3 Q 1069.202 65.8 1074.602 64.1 Q 1080.002 62.4 1085.402 62.2 Q 1087.302 58.4 1088.452 54.4 A 35.047 35.047 0 0 0 1089.153 51.541 Q 1089.602 49.275 1089.602 47.4 Q 1089.602 44.9 1088.702 43.7 A 5.668 5.668 0 0 0 1088.209 44.066 Q 1087.711 44.483 1087.502 44.9 Q 1086.43 46.048 1084.743 47.783 A 421.92 421.92 0 0 1 1083.652 48.9 A 77.834 77.834 0 0 1 1080.355 52.064 A 95.287 95.287 0 0 1 1078.152 54 A 44.509 44.509 0 0 1 1074.031 57.133 A 37.706 37.706 0 0 1 1072.002 58.4 A 15.62 15.62 0 0 1 1069.733 59.497 Q 1068.437 59.991 1067.218 60.138 A 8.493 8.493 0 0 1 1066.202 60.2 A 5.791 5.791 0 0 1 1063.81 59.673 A 6.738 6.738 0 0 1 1063.652 59.6 A 5.219 5.219 0 0 1 1062.036 58.376 A 6.624 6.624 0 0 1 1061.502 57.7 Q 1060.402 56.1 1060.402 54.1 A 10.598 10.598 0 0 1 1060.809 51.271 Q 1061.151 50.036 1061.78 48.722 A 20.155 20.155 0 0 1 1062.252 47.8 A 33.987 33.987 0 0 1 1065.549 42.863 A 39.879 39.879 0 0 1 1066.952 41.2 A 40.189 40.189 0 0 1 1072.641 35.908 A 37.182 37.182 0 0 1 1073.052 35.6 A 32.111 32.111 0 0 1 1075.426 33.997 Q 1076.72 33.21 1077.935 32.669 A 16.635 16.635 0 0 1 1079.102 32.2 A 14.129 14.129 0 0 1 1080.286 31.864 A 16.908 16.908 0 0 1 1081.052 31.7 Q 1082.102 31.5 1083.302 31.5 Q 1086.102 31.5 1088.652 32.7 A 4.913 4.913 0 0 1 1091.389 35.947 A 7.198 7.198 0 0 1 1091.602 37 Z M 1049.402 97.4 A 19.652 19.652 0 0 0 1059.173 94.768 A 23.315 23.315 0 0 0 1059.552 94.55 A 37.953 37.953 0 0 0 1065.44 90.242 A 47.987 47.987 0 0 0 1068.852 86.9 Q 1073.302 82.1 1077.202 76.15 Q 1081.102 70.2 1084.402 64 A 47.491 47.491 0 0 0 1069.766 68.179 A 55.386 55.386 0 0 0 1067.102 69.5 Q 1058.602 74 1051.502 79.9 A 41.756 41.756 0 0 0 1048.824 82.265 Q 1046.532 84.483 1045.252 86.55 A 17.548 17.548 0 0 0 1044.224 88.446 Q 1043.302 90.45 1043.302 92.1 A 5.65 5.65 0 0 0 1043.574 93.893 A 4.659 4.659 0 0 0 1044.952 95.95 Q 1046.518 97.326 1049.12 97.396 A 10.481 10.481 0 0 0 1049.402 97.4 Z" id="17" vector-effect="non-scaling-stroke"/></g></svg>